<?xml version="1.0" encoding="utf-8"?>
<!-- Generator: Adobe Illustrator 17.0.0, SVG Export Plug-In . SVG Version: 6.00 Build 0)  -->
<!DOCTYPE svg PUBLIC "-//W3C//DTD SVG 1.1//EN" "http://www.w3.org/Graphics/SVG/1.1/DTD/svg11.dtd">
<svg version="1.1" id="Слой_1" xmlns="http://www.w3.org/2000/svg" xmlns:xlink="http://www.w3.org/1999/xlink" x="0px" y="0px"
	 width="8.5px" height="8.5px" viewBox="0 0 8.5 8.5" enable-background="new 0 0 8.5 8.5" xml:space="preserve">
<g>
	<g>
		<path fill="#EDEDED" d="M4.25,1.898c-0.211,0-0.381-0.171-0.381-0.382V0.412c0-0.211,0.171-0.382,0.381-0.382
			c0.211,0,0.382,0.171,0.382,0.382v1.104C4.631,1.727,4.461,1.898,4.25,1.898z"/>
		<path fill="#EDEDED" d="M1.516,4.632H0.412c-0.211,0-0.381-0.171-0.381-0.382s0.171-0.382,0.381-0.382h1.104
			c0.211,0,0.381,0.171,0.381,0.382S1.727,4.632,1.516,4.632z"/>
		<path fill="#EDEDED" d="M4.25,8.469c-0.211,0-0.381-0.171-0.381-0.382V6.984c0-0.211,0.171-0.382,0.381-0.382
			c0.211,0,0.382,0.171,0.382,0.382v1.104C4.631,8.298,4.461,8.469,4.25,8.469z"/>
		<path fill="#EDEDED" d="M8.087,4.632H6.984c-0.211,0-0.382-0.171-0.382-0.382s0.171-0.382,0.382-0.382h1.104
			c0.211,0,0.382,0.171,0.382,0.382S8.298,4.632,8.087,4.632z"/>
		<path fill="#EDEDED" d="M4.25,6.269c-1.113,0-2.019-0.906-2.019-2.019c0-1.113,0.906-2.019,2.019-2.019S6.269,3.137,6.269,4.25
			C6.269,5.363,5.363,6.269,4.25,6.269z M4.25,2.994c-0.692,0-1.256,0.563-1.256,1.256c0,0.692,0.563,1.256,1.256,1.256
			S5.506,4.943,5.506,4.25C5.506,3.558,4.942,2.994,4.25,2.994z"/>
	</g>
	<path fill="#EDEDED" d="M2.317,2.699c-0.098,0-0.195-0.037-0.27-0.112l-0.39-0.39c-0.149-0.149-0.149-0.39,0-0.539
		c0.149-0.149,0.39-0.149,0.539,0l0.39,0.39c0.149,0.149,0.149,0.39,0,0.539C2.512,2.661,2.415,2.699,2.317,2.699z"/>
	<path fill="#EDEDED" d="M1.927,6.955c-0.098,0-0.195-0.037-0.27-0.112c-0.149-0.149-0.149-0.39,0-0.539l0.39-0.39
		c0.149-0.149,0.39-0.149,0.539,0c0.149,0.149,0.149,0.39,0,0.539l-0.39,0.39C2.122,6.918,2.024,6.955,1.927,6.955z"/>
	<path fill="#EDEDED" d="M6.573,6.955c-0.097,0-0.195-0.037-0.27-0.112l-0.39-0.39c-0.149-0.149-0.149-0.39,0-0.539
		c0.149-0.149,0.39-0.149,0.539,0l0.39,0.39c0.149,0.149,0.149,0.39,0,0.539C6.768,6.918,6.671,6.955,6.573,6.955z"/>
	<path fill="#EDEDED" d="M6.183,2.699c-0.098,0-0.195-0.037-0.27-0.112c-0.149-0.149-0.149-0.39,0-0.539l0.39-0.39
		c0.149-0.149,0.39-0.149,0.54,0c0.149,0.149,0.149,0.39,0,0.539l-0.39,0.39C6.378,2.661,6.28,2.699,6.183,2.699z"/>
</g>
</svg>
