<?xml version="1.0" encoding="utf-8"?>
<!-- Generator: Adobe Illustrator 17.0.0, SVG Export Plug-In . SVG Version: 6.00 Build 0)  -->
<!DOCTYPE svg PUBLIC "-//W3C//DTD SVG 1.1//EN" "http://www.w3.org/Graphics/SVG/1.1/DTD/svg11.dtd">
<svg version="1.1" id="Слой_1" xmlns="http://www.w3.org/2000/svg" xmlns:xlink="http://www.w3.org/1999/xlink" x="0px" y="0px"
	 width="28.35px" height="28.35px" viewBox="0 0 28.35 28.35" enable-background="new 0 0 28.35 28.35" xml:space="preserve">
<path fill="#EEEDED" d="M20.526,19.533c-2.503-1.037-4.452-2.986-5.489-5.489c-1.036-2.503-1.037-5.259,0-7.762
	c0.298-0.718,0.67-1.39,1.11-2.008c0.847-1.197,1.947-2.191,3.235-2.922c-1.529-0.581-3.162-0.893-4.821-0.905
	c-1.795-0.013-3.622,0.326-5.385,1.056C2.121,4.425-1.231,12.515,1.691,19.572c2.924,7.057,11.013,10.408,18.07,7.485
	c1.763-0.73,3.293-1.782,4.554-3.061c1.164-1.182,2.098-2.557,2.769-4.049c-1.428,0.394-2.909,0.468-4.354,0.222
	C21.982,20.042,21.244,19.83,20.526,19.533z M18.35,23.649c-2.502,1.036-5.258,1.036-7.762,0.001
	c-2.502-1.038-4.451-2.986-5.489-5.49c-1.036-2.503-1.036-5.259-0.001-7.762c1.038-2.503,2.987-4.453,5.489-5.489
	c0.396-0.164,0.798-0.302,1.205-0.414c-1.506,3.353-1.68,7.296-0.163,10.96c1.518,3.665,4.43,6.33,7.865,7.635
	C19.127,23.298,18.746,23.485,18.35,23.649z"/>
</svg>
