<?xml version="1.0" encoding="utf-8"?>
<!-- Generator: Adobe Illustrator 17.0.0, SVG Export Plug-In . SVG Version: 6.00 Build 0)  -->
<!DOCTYPE svg PUBLIC "-//W3C//DTD SVG 1.1//EN" "http://www.w3.org/Graphics/SVG/1.1/DTD/svg11.dtd">
<svg version="1.1" id="Слой_1" xmlns="http://www.w3.org/2000/svg" xmlns:xlink="http://www.w3.org/1999/xlink" x="0px" y="0px"
	 width="8.5px" height="8.5px" viewBox="0 0 8.5 8.5" enable-background="new 0 0 8.5 8.5" xml:space="preserve">
<g>
	<path fill="#EFEEED" d="M5.481,2.227c-0.148,0-0.267-0.151-0.267-0.337V0.915c0-0.186,0.12-0.337,0.267-0.337
		c0.148,0,0.267,0.151,0.267,0.337V1.89C5.748,2.076,5.628,2.227,5.481,2.227z"/>
	<path fill="#EFEEED" d="M4.127,2.935c-0.068,0-0.137-0.033-0.189-0.099l-0.547-0.69c-0.104-0.132-0.104-0.345,0-0.477
		c0.104-0.132,0.273-0.132,0.378,0l0.547,0.69c0.104,0.132,0.104,0.345,0,0.477C4.263,2.902,4.195,2.935,4.127,2.935z"/>
	<path fill="#EFEEED" d="M7.381,7.042c-0.068,0-0.137-0.033-0.189-0.099l-0.547-0.69c-0.104-0.131-0.104-0.345,0-0.477
		c0.104-0.132,0.273-0.132,0.378,0l0.547,0.69c0.104,0.132,0.104,0.345,0,0.477C7.518,7.009,7.45,7.042,7.381,7.042z"/>
	<path fill="#EFEEED" d="M8.168,4.643H7.395c-0.148,0-0.267-0.151-0.267-0.337c0-0.186,0.12-0.337,0.267-0.337h0.773
		c0.148,0,0.267,0.151,0.267,0.337C8.436,4.492,8.316,4.643,8.168,4.643z"/>
	<path fill="#EFEEED" d="M6.834,2.935c-0.068,0-0.137-0.033-0.189-0.099c-0.104-0.132-0.104-0.345,0-0.477l0.547-0.69
		c0.104-0.132,0.273-0.132,0.378,0s0.104,0.345,0,0.477l-0.547,0.69C6.971,2.902,6.903,2.935,6.834,2.935z"/>
	<path fill="#EFEEED" d="M6.894,4.306c0-0.984-0.634-1.784-1.414-1.784c-0.473,0-0.893,0.295-1.15,0.747
		C4.038,3.06,3.703,2.945,3.353,2.945c-0.46,0-0.909,0.203-1.263,0.572C1.811,3.807,1.6,4.189,1.48,4.615
		c-0.152-0.022-0.307-0.01-0.457,0.034c-0.345,0.103-0.638,0.37-0.825,0.751C0.012,5.782-0.046,6.232,0.036,6.668
		c0.069,0.37,0.238,0.702,0.475,0.935c0.233,0.23,0.523,0.356,0.818,0.356h3.575c0.119,0,0.238-0.018,0.354-0.052
		c0.804-0.24,1.311-1.243,1.153-2.257C6.707,5.322,6.894,4.841,6.894,4.306z M5.135,7.25C5.059,7.273,4.981,7.284,4.904,7.284H1.329
		c-0.369,0-0.687-0.317-0.772-0.772c-0.049-0.261-0.014-0.53,0.097-0.758C0.765,5.527,0.94,5.367,1.146,5.306
		c0.06-0.018,0.122-0.027,0.184-0.027c0.086,0,0.171,0.018,0.253,0.053c0.073,0.031,0.152,0.021,0.219-0.027
		c0.066-0.048,0.113-0.13,0.129-0.225c0.138-0.847,0.736-1.461,1.422-1.461c0.271,0,0.53,0.095,0.753,0.266
		C4.32,4.048,4.501,4.281,4.626,4.568C4.628,4.572,4.63,4.577,4.632,4.582C4.68,4.694,4.774,4.762,4.875,4.758
		c0.01-0.001,0.02-0.001,0.03-0.001c0.356,0,0.675,0.234,0.852,0.602c0.054,0.112,0.095,0.237,0.12,0.371
		c0.017,0.093,0.026,0.186,0.027,0.278C5.909,6.585,5.598,7.112,5.135,7.25z M5.849,4.495C5.611,4.26,5.321,4.118,5.021,4.089
		C4.944,3.939,4.855,3.801,4.757,3.677c0.159-0.29,0.424-0.48,0.724-0.48c0.485,0,0.88,0.498,0.88,1.11
		c0,0.245-0.063,0.473-0.171,0.657C6.097,4.785,5.983,4.626,5.849,4.495z"/>
</g>
</svg>
