<?xml version="1.0" encoding="utf-8"?>
<!-- Generator: Adobe Illustrator 17.0.0, SVG Export Plug-In . SVG Version: 6.00 Build 0)  -->
<!DOCTYPE svg PUBLIC "-//W3C//DTD SVG 1.1//EN" "http://www.w3.org/Graphics/SVG/1.1/DTD/svg11.dtd">
<svg version="1.1" id="Слой_1" xmlns="http://www.w3.org/2000/svg" xmlns:xlink="http://www.w3.org/1999/xlink" x="0px" y="0px"
	 width="8.5px" height="8.5px" viewBox="0 0 8.5 8.5" enable-background="new 0 0 8.5 8.5" xml:space="preserve">
<g>
	<path fill="#EFEEED" d="M8.372,3.196c0.111-0.307,0.15-0.639,0.116-0.963C8.486,2.236,8.483,2.239,8.48,2.242
		C8.299,2.445,8.068,2.561,7.831,2.59C7.516,2.627,7.189,2.512,6.949,2.242c-0.241-0.27-0.344-0.636-0.31-0.988
		c0.025-0.266,0.129-0.524,0.31-0.728C6.952,0.523,6.954,0.52,6.957,0.517c-0.29-0.038-0.586,0.006-0.86,0.131
		C5.887,0.743,5.691,0.886,5.52,1.077C5.212,1.423,5.043,1.866,5.014,2.318c-0.268-0.11-0.554-0.169-0.849-0.169
		c-0.57,0-1.126,0.223-1.566,0.629c-0.346,0.32-0.608,0.74-0.756,1.209C1.655,3.963,1.462,3.976,1.276,4.025
		C0.848,4.139,0.485,4.432,0.253,4.852c-0.231,0.42-0.303,0.915-0.201,1.394c0.086,0.406,0.295,0.772,0.588,1.029
		c0.289,0.253,0.649,0.392,1.014,0.392h4.432c0.147,0,0.295-0.02,0.439-0.058C7.546,7.338,8.18,6.187,7.939,5.044
		C7.873,4.731,7.744,4.44,7.565,4.192c0.153-0.09,0.296-0.206,0.424-0.35C8.159,3.651,8.287,3.431,8.372,3.196z M5.981,1.611
		c0.044,0.422,0.21,0.832,0.499,1.156c0.289,0.324,0.655,0.51,1.032,0.56c-0.154,0.17-0.343,0.277-0.541,0.322
		C6.742,3.513,6.49,3.431,6.232,3.409C6.087,3.157,5.908,2.937,5.705,2.755C5.616,2.359,5.708,1.922,5.981,1.611z M6.373,6.887
		C6.278,6.912,6.182,6.925,6.086,6.925H1.654c-0.458,0-0.852-0.349-0.957-0.849c-0.061-0.287-0.018-0.583,0.12-0.834
		c0.138-0.251,0.355-0.426,0.611-0.494c0.075-0.02,0.152-0.03,0.228-0.03c0.107,0,0.213,0.02,0.314,0.058
		c0.09,0.034,0.189,0.023,0.271-0.03c0.082-0.053,0.14-0.143,0.16-0.247c0.171-0.932,0.913-1.608,1.763-1.608
		c0.355,0,0.694,0.116,0.98,0.325C5.393,3.396,5.603,3.647,5.75,3.95c0.06,0.123,0.176,0.198,0.301,0.194
		c0.012,0,0.025-0.001,0.037-0.001c0.273,0,0.527,0.098,0.734,0.269c0.231,0.19,0.402,0.469,0.472,0.801
		C7.452,5.96,7.038,6.711,6.373,6.887z"/>
</g>
</svg>
