<?xml version="1.0" encoding="utf-8"?>
<!-- Generator: Adobe Illustrator 17.0.0, SVG Export Plug-In . SVG Version: 6.00 Build 0)  -->
<!DOCTYPE svg PUBLIC "-//W3C//DTD SVG 1.1//EN" "http://www.w3.org/Graphics/SVG/1.1/DTD/svg11.dtd">
<svg version="1.1" id="Слой_1" xmlns="http://www.w3.org/2000/svg" xmlns:xlink="http://www.w3.org/1999/xlink" x="0px" y="0px"
	 width="8.5px" height="8.5px" viewBox="0 0 8.5 8.5" enable-background="new 0 0 8.5 8.5" xml:space="preserve">
<path fill="#EFEEED" d="M8.446,4.627C8.34,4.064,8.083,3.558,7.722,3.202c-0.315-0.31-0.698-0.496-1.093-0.535
	c-0.482-0.938-1.307-1.51-2.202-1.51c-0.607,0-1.2,0.268-1.667,0.754C2.391,2.295,2.112,2.799,1.954,3.361
	c-0.2-0.029-0.405-0.014-0.604,0.045C0.894,3.542,0.508,3.894,0.261,4.397C0.015,4.9-0.061,5.493,0.047,6.068
	c0.092,0.487,0.314,0.926,0.627,1.233c0.308,0.303,0.691,0.47,1.079,0.47h0.011h0.554c0.001,0,3.135,0,3.862,0l0,0c0,0,0,0,0,0
	c0.095,0,0.149,0,0.149,0l0,0h0.144c0.157,0,0.314-0.023,0.467-0.069C8.028,7.377,8.703,5.998,8.446,4.627z M6.778,6.836
	c-0.1,0.03-0.203,0.045-0.305,0.045H6.18l0,0H2.32H1.764c-0.001,0-0.002,0-0.003,0H1.753c-0.488,0-0.907-0.419-1.019-1.018
	C0.669,5.519,0.715,5.164,0.862,4.864c0.147-0.3,0.378-0.511,0.651-0.592c0.08-0.024,0.161-0.036,0.243-0.036
	c0.114,0,0.226,0.024,0.334,0.07c0.096,0.041,0.201,0.028,0.289-0.035c0.088-0.063,0.15-0.171,0.17-0.296
	C2.73,2.857,3.52,2.046,4.426,2.046c0.705,0,1.352,0.487,1.688,1.27c0.063,0.148,0.188,0.238,0.321,0.233
	c0.013-0.001,0.026-0.001,0.04-0.001c0.614,0,1.142,0.527,1.284,1.282C7.927,5.725,7.487,6.625,6.778,6.836z"/>
</svg>
