<?xml version="1.0" encoding="utf-8"?>
<!-- Generator: Adobe Illustrator 17.0.0, SVG Export Plug-In . SVG Version: 6.00 Build 0)  -->
<!DOCTYPE svg PUBLIC "-//W3C//DTD SVG 1.1//EN" "http://www.w3.org/Graphics/SVG/1.1/DTD/svg11.dtd">
<svg version="1.1" id="Слой_1" xmlns="http://www.w3.org/2000/svg" xmlns:xlink="http://www.w3.org/1999/xlink" x="0px" y="0px"
	 width="8.5px" height="8.5px" viewBox="0 0 8.5 8.5" enable-background="new 0 0 8.5 8.5" xml:space="preserve">
<path fill="#EFEEED" d="M8.463,3.96C8.376,3.469,8.168,3.029,7.874,2.719c-0.256-0.27-0.567-0.433-0.888-0.466
	C6.595,1.435,5.924,0.936,5.197,0.936c-0.493,0-0.975,0.234-1.355,0.657C3.713,1.738,3.597,1.902,3.497,2.081
	C3.036,2.108,2.591,2.338,2.235,2.736C1.936,3.07,1.709,3.509,1.581,3.999c-0.162-0.025-0.329-0.012-0.49,0.04
	C0.72,4.157,0.406,4.464,0.206,4.903c-0.2,0.438-0.262,0.956-0.174,1.457c0.074,0.425,0.255,0.807,0.509,1.075
	c0.25,0.264,0.561,0.409,0.877,0.409h0.009h3.826c0.127,0,0.255-0.02,0.38-0.06c0.467-0.149,0.84-0.556,1.058-1.082h0.17
	c0.128,0,0.255-0.02,0.38-0.06C8.123,6.358,8.672,5.156,8.463,3.96z M5.966,6.701C5.837,6.856,5.68,6.972,5.5,7.029
	C5.419,7.055,5.336,7.068,5.253,7.068H1.425l-0.007,0c-0.396,0-0.737-0.365-0.828-0.888c-0.053-0.3-0.016-0.609,0.104-0.871
	c0.12-0.262,0.307-0.445,0.529-0.516C1.288,4.773,1.354,4.762,1.42,4.762c0.061,0,0.121,0.009,0.181,0.026
	c0.031,0.009,0.061,0.02,0.091,0.034c0.078,0.036,0.163,0.025,0.235-0.031c0.071-0.055,0.122-0.149,0.138-0.258
	c0.148-0.973,0.79-1.68,1.526-1.68c0.072,0,0.144,0.007,0.214,0.02c0.487,0.091,0.919,0.491,1.157,1.087
	C5.013,4.09,5.114,4.169,5.222,4.164c0.011-0.001,0.021-0.001,0.032-0.001c0.499,0,0.928,0.46,1.043,1.118
	C6.336,5.5,6.335,5.72,6.302,5.926C6.253,6.225,6.135,6.498,5.966,6.701z M7.108,5.887C7.034,5.91,6.959,5.923,6.884,5.925
	c0.028-0.267,0.02-0.545-0.028-0.823C6.77,4.612,6.561,4.171,6.267,3.861C6.012,3.591,5.7,3.428,5.379,3.395
	C5.101,2.814,4.682,2.394,4.202,2.2c0.273-0.306,0.622-0.488,0.995-0.488c0.573,0,1.099,0.424,1.372,1.107
	C6.62,2.948,6.721,3.026,6.829,3.022c0.011,0,0.021-0.001,0.032-0.001c0.499,0,0.928,0.46,1.043,1.118
	C8.041,4.918,7.683,5.702,7.108,5.887z"/>
</svg>
