<?xml version="1.0" encoding="utf-8"?>
<!-- Generator: Adobe Illustrator 17.0.0, SVG Export Plug-In . SVG Version: 6.00 Build 0)  -->
<!DOCTYPE svg PUBLIC "-//W3C//DTD SVG 1.1//EN" "http://www.w3.org/Graphics/SVG/1.1/DTD/svg11.dtd">
<svg version="1.1" id="Слой_1" xmlns="http://www.w3.org/2000/svg" xmlns:xlink="http://www.w3.org/1999/xlink" x="0px" y="0px"
	 width="8.5px" height="8.5px" viewBox="0 0 8.5 8.5" enable-background="new 0 0 8.5 8.5" xml:space="preserve">
<g>
	<path fill="#EFEEED" d="M8.367,3.206C8.263,2.764,8.008,2.367,7.651,2.089C7.34,1.846,6.961,1.699,6.57,1.669
		C6.094,0.934,5.278,0.485,4.393,0.485c-0.6,0-1.186,0.21-1.648,0.591C2.38,1.377,2.105,1.772,1.949,2.213
		C1.751,2.19,1.548,2.202,1.352,2.249C0.901,2.355,0.519,2.631,0.275,3.026C0.032,3.42-0.043,3.885,0.064,4.336
		c0.091,0.382,0.31,0.726,0.62,0.967C0.987,5.541,1.366,5.671,1.75,5.671h0.011h0.141l0.289-0.697h-0.43c-0.001,0-0.002,0-0.003,0
		H1.75c-0.482,0-0.897-0.328-1.008-0.798c-0.064-0.27-0.019-0.548,0.127-0.784c0.146-0.236,0.374-0.401,0.644-0.465
		c0.079-0.019,0.16-0.028,0.24-0.028c0.112,0,0.224,0.018,0.331,0.055c0.095,0.032,0.199,0.022,0.285-0.028
		c0.087-0.05,0.148-0.134,0.168-0.232c0.18-0.876,0.961-1.511,1.857-1.511c0.698,0,1.337,0.382,1.669,0.996
		c0.063,0.116,0.185,0.187,0.317,0.183c0.013,0,0.026-0.001,0.039-0.001c0.607,0,1.129,0.414,1.27,1.006
		c0.166,0.701-0.269,1.406-0.97,1.572C6.619,4.961,6.518,4.973,6.417,4.973H6.41L6.122,5.671h0.295c0.155,0,0.31-0.018,0.462-0.054
		C7.954,5.362,8.621,4.281,8.367,3.206z"/>
	<path fill="#EFEEED" d="M2.311,6.899c-0.044,0-0.09-0.009-0.133-0.027C2,6.799,1.916,6.595,1.989,6.417l0.8-1.93
		c0.074-0.178,0.278-0.262,0.456-0.189c0.178,0.074,0.262,0.278,0.189,0.456l-0.8,1.931C2.578,6.818,2.448,6.899,2.311,6.899z"/>
	<path fill="#EFEEED" d="M3.162,8.071c-0.044,0-0.09-0.009-0.133-0.027C2.851,7.971,2.766,7.767,2.84,7.589l1.285-3.102
		c0.074-0.178,0.278-0.262,0.456-0.189c0.178,0.074,0.262,0.278,0.189,0.456L3.484,7.856C3.429,7.99,3.299,8.071,3.162,8.071z"/>
	<path fill="#EFEEED" d="M5.181,6.422c-0.045,0-0.09-0.009-0.133-0.027C4.87,6.322,4.786,6.118,4.859,5.94l0.602-1.453
		c0.074-0.178,0.278-0.262,0.456-0.189c0.178,0.074,0.262,0.278,0.189,0.456L5.503,6.207C5.448,6.341,5.318,6.422,5.181,6.422z"/>
</g>
</svg>
