<?xml version="1.0" encoding="utf-8"?>
<!-- Generator: Adobe Illustrator 17.0.0, SVG Export Plug-In . SVG Version: 6.00 Build 0)  -->
<!DOCTYPE svg PUBLIC "-//W3C//DTD SVG 1.1//EN" "http://www.w3.org/Graphics/SVG/1.1/DTD/svg11.dtd">
<svg version="1.1" id="Слой_1" xmlns="http://www.w3.org/2000/svg" xmlns:xlink="http://www.w3.org/1999/xlink" x="0px" y="0px"
	 width="8.5px" height="8.5px" viewBox="0 0 8.5 8.5" enable-background="new 0 0 8.5 8.5" xml:space="preserve">
<g>
	<path fill="#EFEEED" d="M5.53,1.702c-0.148,0-0.268-0.12-0.268-0.268V0.657c0-0.148,0.12-0.268,0.268-0.268
		c0.148,0,0.268,0.12,0.268,0.268v0.777C5.799,1.582,5.678,1.702,5.53,1.702z"/>
	<path fill="#EFEEED" d="M4.17,2.266c-0.069,0-0.137-0.026-0.19-0.079L3.432,1.638c-0.105-0.105-0.105-0.275,0-0.379
		c0.105-0.105,0.275-0.105,0.379,0L4.36,1.808c0.105,0.105,0.105,0.275,0,0.379C4.308,2.239,4.239,2.266,4.17,2.266z"/>
	<path fill="#EFEEED" d="M7.439,5.534c-0.069,0-0.137-0.026-0.19-0.079L6.7,4.906c-0.105-0.105-0.105-0.275,0-0.379
		c0.105-0.105,0.275-0.105,0.379,0l0.549,0.549c0.105,0.105,0.105,0.274,0,0.379C7.577,5.508,7.508,5.534,7.439,5.534z"/>
	<path fill="#EFEEED" d="M8.23,3.625H7.453c-0.148,0-0.268-0.12-0.268-0.268c0-0.148,0.12-0.268,0.268-0.268H8.23
		c0.148,0,0.268,0.12,0.268,0.268C8.498,3.505,8.378,3.625,8.23,3.625z"/>
	<path fill="#EFEEED" d="M6.89,2.266c-0.069,0-0.137-0.026-0.19-0.079c-0.105-0.105-0.105-0.275,0-0.379l0.549-0.549
		c0.105-0.105,0.275-0.105,0.38,0c0.105,0.105,0.105,0.275,0,0.379L7.08,2.187C7.027,2.239,6.959,2.266,6.89,2.266z"/>
	<g>
		<path fill="#EFEEED" d="M2.348,7.209c-0.034,0-0.069-0.007-0.103-0.02C2.109,7.132,2.044,6.975,2.101,6.838l0.615-1.486
			c0.057-0.137,0.214-0.202,0.35-0.145c0.137,0.057,0.202,0.214,0.145,0.35L2.596,7.043C2.554,7.147,2.454,7.209,2.348,7.209z"/>
		<path fill="#EFEEED" d="M6.95,3.357c0-0.783-0.637-1.42-1.42-1.42c-0.475,0-0.897,0.235-1.155,0.594
			C4.081,2.365,3.745,2.273,3.394,2.273c-0.462,0-0.913,0.161-1.268,0.455C1.845,2.96,1.633,3.264,1.513,3.603
			C1.36,3.585,1.204,3.595,1.053,3.63C0.707,3.712,0.412,3.925,0.225,4.228C0.038,4.531-0.02,4.89,0.062,5.236
			c0.07,0.294,0.239,0.558,0.477,0.744C0.773,6.163,1.064,6.264,1.36,6.264h0.673l0.222-0.537H1.36c-0.371,0-0.69-0.253-0.776-0.614
			C0.535,4.905,0.57,4.691,0.682,4.51C0.794,4.328,0.97,4.201,1.177,4.152C1.238,4.138,1.3,4.131,1.362,4.131
			c0.087,0,0.172,0.014,0.254,0.042c0.073,0.025,0.153,0.017,0.22-0.021c0.067-0.038,0.114-0.103,0.129-0.179
			C2.104,3.299,2.704,2.81,3.394,2.81c0.272,0,0.533,0.075,0.757,0.212c0.215,0.13,0.396,0.316,0.521,0.544
			c0.002,0.004,0.004,0.007,0.006,0.011C4.726,3.666,4.821,3.72,4.922,3.717c0.01,0,0.02-0.001,0.03-0.001
			c0.358,0,0.678,0.187,0.856,0.479C5.863,4.285,5.904,4.384,5.929,4.49c0.018,0.074,0.026,0.148,0.027,0.221
			C5.961,5.171,5.648,5.59,5.183,5.7C5.106,5.718,5.028,5.727,4.951,5.727H4.474L4.252,6.264h0.699c0.119,0,0.239-0.014,0.355-0.042
			c0.808-0.191,1.316-0.989,1.158-1.796C6.762,4.165,6.95,3.783,6.95,3.357z M5.069,3.185c-0.078-0.12-0.167-0.23-0.266-0.328
			c0.16-0.231,0.426-0.382,0.727-0.382c0.487,0,0.883,0.396,0.883,0.883c0,0.195-0.064,0.376-0.172,0.523
			C6.15,3.739,6.035,3.612,5.901,3.507C5.661,3.32,5.37,3.208,5.069,3.185z"/>
		<path fill="#EFEEED" d="M3.003,8.111c-0.034,0-0.069-0.007-0.103-0.021C2.763,8.034,2.698,7.877,2.755,7.74l0.989-2.387
			c0.057-0.137,0.214-0.202,0.351-0.145c0.137,0.057,0.202,0.214,0.145,0.35L3.251,7.945C3.208,8.048,3.108,8.111,3.003,8.111z"/>
	</g>
</g>
</svg>
