<?xml version="1.0" encoding="utf-8"?>
<!-- Generator: Adobe Illustrator 17.0.0, SVG Export Plug-In . SVG Version: 6.00 Build 0)  -->
<!DOCTYPE svg PUBLIC "-//W3C//DTD SVG 1.1//EN" "http://www.w3.org/Graphics/SVG/1.1/DTD/svg11.dtd">
<svg version="1.1" id="Слой_1" xmlns="http://www.w3.org/2000/svg" xmlns:xlink="http://www.w3.org/1999/xlink" x="0px" y="0px"
	 width="8.5px" height="8.5px" viewBox="0 0 8.5 8.5" enable-background="new 0 0 8.5 8.5" xml:space="preserve">
<g>
	<path fill="#EFEEED" d="M8.238,2.377C8.345,2.112,8.383,1.825,8.35,1.545C8.348,1.548,8.345,1.55,8.343,1.553
		c-0.176,0.176-0.399,0.276-0.629,0.3c-0.305,0.033-0.621-0.067-0.854-0.3C6.627,1.32,6.526,1.003,6.559,0.699
		C6.584,0.469,6.684,0.246,6.86,0.07c0.003-0.003,0.005-0.005,0.008-0.008C6.587,0.03,6.3,0.067,6.035,0.175
		C5.832,0.257,5.642,0.381,5.477,0.546C5.178,0.845,5.014,1.228,4.986,1.619C4.727,1.523,4.449,1.473,4.164,1.473
		c-0.552,0-1.091,0.193-1.516,0.544c-0.335,0.276-0.588,0.64-0.732,1.045c-0.182-0.021-0.368-0.01-0.549,0.033
		C0.952,3.192,0.6,3.446,0.377,3.809C0.153,4.171,0.084,4.6,0.182,5.014c0.083,0.351,0.285,0.667,0.57,0.889
		c0.28,0.218,0.628,0.339,0.981,0.339h0.805L2.803,5.6H1.733c-0.444,0-0.825-0.302-0.927-0.734C0.747,4.618,0.788,4.362,0.922,4.146
		c0.134-0.217,0.344-0.369,0.592-0.427c0.073-0.017,0.147-0.026,0.221-0.026c0.103,0,0.206,0.017,0.304,0.05
		c0.087,0.029,0.183,0.02,0.262-0.026c0.08-0.046,0.136-0.123,0.155-0.214c0.166-0.805,0.884-1.39,1.707-1.39
		c0.344,0,0.672,0.101,0.949,0.281C5.353,2.551,5.556,2.767,5.698,3.03C5.756,3.136,5.869,3.201,5.99,3.198
		c0.012,0,0.024-0.001,0.036-0.001c0.264,0,0.511,0.085,0.711,0.232C6.96,3.593,7.126,3.835,7.193,4.122
		c0.153,0.645-0.248,1.293-0.892,1.446C6.21,5.589,6.117,5.6,6.024,5.6H5.455L5.189,6.242h0.835c0.143,0,0.286-0.017,0.425-0.05
		c0.989-0.234,1.603-1.229,1.369-2.218c-0.064-0.27-0.189-0.522-0.362-0.736C7.603,3.161,7.742,3.06,7.866,2.936
		C8.032,2.771,8.155,2.58,8.238,2.377z M6.166,2.561C6.025,2.344,5.852,2.154,5.655,1.996C5.57,1.654,5.659,1.276,5.923,1.007
		c0.042,0.365,0.204,0.719,0.484,0.999c0.28,0.28,0.634,0.441,0.999,0.484C7.256,2.637,7.073,2.729,6.882,2.768
		C6.66,2.652,6.415,2.581,6.166,2.561z"/>
	<g>
		<path fill="#EFEEED" d="M2.914,7.371c-0.041,0-0.082-0.008-0.123-0.024C2.628,7.279,2.55,7.092,2.618,6.928l0.735-1.775
			c0.068-0.164,0.255-0.241,0.419-0.174c0.164,0.068,0.241,0.255,0.174,0.419L3.211,7.173C3.159,7.297,3.04,7.371,2.914,7.371z"/>
	</g>
	<g>
		<path fill="#EFEEED" d="M3.696,8.449c-0.041,0-0.082-0.008-0.123-0.024C3.41,8.357,3.333,8.169,3.4,8.006l1.182-2.853
			C4.65,4.989,4.838,4.911,5.001,4.979c0.164,0.068,0.241,0.255,0.174,0.419L3.993,8.251C3.942,8.374,3.822,8.449,3.696,8.449z"/>
	</g>
</g>
</svg>
