<?xml version="1.0" encoding="utf-8"?>
<!-- Generator: Adobe Illustrator 17.0.0, SVG Export Plug-In . SVG Version: 6.00 Build 0)  -->
<!DOCTYPE svg PUBLIC "-//W3C//DTD SVG 1.1//EN" "http://www.w3.org/Graphics/SVG/1.1/DTD/svg11.dtd">
<svg version="1.1" id="Слой_1" xmlns="http://www.w3.org/2000/svg" xmlns:xlink="http://www.w3.org/1999/xlink" x="0px" y="0px"
	 width="8.5px" height="8.5px" viewBox="0 0 8.5 8.5" enable-background="new 0 0 8.5 8.5" xml:space="preserve">
<g>
	<path fill="#EFEEED" d="M8.442,3.341C8.336,2.895,8.079,2.494,7.719,2.212C7.404,1.967,7.021,1.819,6.626,1.788
		C6.144,1.045,5.319,0.591,4.425,0.591c-0.607,0-1.199,0.212-1.666,0.598C2.39,1.493,2.111,1.892,1.953,2.338
		c-0.2-0.023-0.405-0.011-0.603,0.036C0.894,2.482,0.508,2.76,0.262,3.159S-0.06,4.028,0.048,4.484
		C0.139,4.87,0.362,5.217,0.674,5.461c0.307,0.24,0.691,0.372,1.079,0.372h0.011h0.143l0.292-0.705H1.764c-0.001,0-0.002,0-0.003,0
		H1.753c-0.488,0-0.907-0.332-1.019-0.807C0.669,4.049,0.715,3.768,0.862,3.529C1.009,3.291,1.24,3.124,1.512,3.06
		c0.08-0.019,0.161-0.029,0.243-0.029c0.114,0,0.226,0.019,0.334,0.055C2.185,3.119,2.29,3.109,2.378,3.058
		c0.088-0.05,0.15-0.136,0.17-0.235C2.73,1.939,3.519,1.296,4.425,1.296c0.705,0,1.352,0.386,1.687,1.007
		C6.175,2.42,6.299,2.492,6.433,2.488c0.013,0,0.026-0.001,0.04-0.001c0.614,0,1.142,0.418,1.284,1.017
		c0.155,0.655-0.209,1.313-0.824,1.542L6.607,5.829c0.111-0.008,0.222-0.024,0.331-0.05C8.024,5.522,8.699,4.428,8.442,3.341z"/>
	<path fill="#EFEEED" d="M2.32,7.076c-0.045,0-0.091-0.009-0.135-0.027c-0.18-0.074-0.265-0.281-0.191-0.46l0.808-1.952
		c0.074-0.18,0.281-0.265,0.461-0.191c0.18,0.075,0.265,0.281,0.191,0.461L2.646,6.858C2.59,6.994,2.458,7.076,2.32,7.076z"/>
	<path fill="#EFEEED" d="M3.18,8.26c-0.045,0-0.091-0.009-0.135-0.027C2.865,8.159,2.78,7.953,2.854,7.773l1.299-3.136
		c0.074-0.18,0.281-0.265,0.461-0.191c0.18,0.075,0.265,0.281,0.191,0.461L3.506,8.043C3.45,8.178,3.318,8.26,3.18,8.26z"/>
	<g>
		<polygon fill="#EFEEED" points="5.723,5.743 6.221,5.743 5.157,8.313 5.411,6.461 4.938,6.461 5.311,4.408 6.28,4.408 		"/>
	</g>
</g>
</svg>
