<?xml version="1.0" encoding="utf-8"?>
<!-- Generator: Adobe Illustrator 17.0.0, SVG Export Plug-In . SVG Version: 6.00 Build 0)  -->
<!DOCTYPE svg PUBLIC "-//W3C//DTD SVG 1.1//EN" "http://www.w3.org/Graphics/SVG/1.1/DTD/svg11.dtd">
<svg version="1.1" id="Слой_1" xmlns="http://www.w3.org/2000/svg" xmlns:xlink="http://www.w3.org/1999/xlink" x="0px" y="0px"
	 width="8.5px" height="8.5px" viewBox="0 0 8.5 8.5" enable-background="new 0 0 8.5 8.5" xml:space="preserve">
<g>
	<g>
		<path fill="#EFEEED" d="M5.503,2.042c-0.146,0-0.265-0.119-0.265-0.265V1.01c0-0.146,0.119-0.265,0.265-0.265
			c0.146,0,0.265,0.119,0.265,0.265v0.767C5.768,1.923,5.649,2.042,5.503,2.042z"/>
		<path fill="#EFEEED" d="M4.16,2.598c-0.068,0-0.136-0.026-0.187-0.078L3.43,1.978c-0.103-0.103-0.103-0.271,0-0.375
			c0.103-0.103,0.271-0.103,0.375,0l0.542,0.542c0.103,0.104,0.103,0.271,0,0.375C4.296,2.572,4.228,2.598,4.16,2.598z"/>
		<path fill="#EFEEED" d="M7.388,5.826c-0.068,0-0.136-0.026-0.187-0.078L6.658,5.206c-0.103-0.103-0.103-0.271,0-0.375
			c0.103-0.103,0.271-0.103,0.375,0l0.542,0.542c0.103,0.103,0.103,0.271,0,0.375C7.524,5.8,7.456,5.826,7.388,5.826z"/>
		<path fill="#EFEEED" d="M8.169,3.941H7.402c-0.146,0-0.265-0.119-0.265-0.265c0-0.146,0.119-0.265,0.265-0.265h0.767
			c0.146,0,0.265,0.119,0.265,0.265C8.434,3.822,8.316,3.941,8.169,3.941z"/>
		<path fill="#EFEEED" d="M6.846,2.598c-0.068,0-0.136-0.026-0.187-0.078c-0.103-0.104-0.103-0.271,0-0.375l0.542-0.542
			c0.104-0.103,0.271-0.103,0.375,0c0.103,0.103,0.103,0.271,0,0.375L7.033,2.52C6.981,2.572,6.914,2.598,6.846,2.598z"/>
	</g>
	<g>
		<g>
			<path fill="#EFEEED" d="M4.494,7.482L4.323,7.384l0.171-0.099c0.063-0.037,0.085-0.118,0.048-0.181
				C4.506,7.041,4.425,7.019,4.362,7.055L4.191,7.154V6.959c0-0.073-0.059-0.133-0.133-0.133c-0.073,0-0.132,0.059-0.132,0.133
				v0.195L3.756,7.057C3.693,7.02,3.612,7.042,3.576,7.105C3.539,7.168,3.561,7.249,3.624,7.286l0.169,0.098L3.624,7.481
				C3.561,7.518,3.539,7.599,3.576,7.662C3.6,7.705,3.645,7.729,3.69,7.729c0.022,0,0.045-0.006,0.066-0.018l0.169-0.098v0.197
				c0,0.073,0.059,0.132,0.132,0.132c0.073,0,0.133-0.059,0.133-0.132V7.613l0.171,0.099C4.382,7.724,4.405,7.73,4.427,7.73
				c0.046,0,0.09-0.024,0.115-0.066C4.579,7.6,4.557,7.519,4.494,7.482z"/>
		</g>
		<g>
			<path fill="#EFEEED" d="M3.695,6.38L3.524,6.281l0.171-0.099C3.759,6.145,3.78,6.064,3.744,6.001
				C3.707,5.938,3.626,5.916,3.563,5.953L3.392,6.051V5.856c0-0.073-0.059-0.132-0.132-0.132c-0.073,0-0.133,0.059-0.133,0.132
				v0.195L2.957,5.954C2.894,5.917,2.813,5.939,2.776,6.002C2.74,6.065,2.762,6.147,2.825,6.183l0.169,0.098L2.825,6.378
				C2.762,6.415,2.74,6.496,2.776,6.559c0.025,0.043,0.069,0.066,0.115,0.066c0.022,0,0.045-0.006,0.066-0.018L3.126,6.51v0.197
				c0,0.073,0.059,0.132,0.133,0.132c0.073,0,0.132-0.059,0.132-0.132V6.51l0.171,0.099c0.021,0.012,0.044,0.018,0.066,0.018
				c0.046,0,0.09-0.024,0.115-0.066C3.78,6.497,3.759,6.416,3.695,6.38z"/>
		</g>
		<g>
			<path fill="#EFEEED" d="M2.9,7.482L2.729,7.384L2.9,7.285c0.063-0.037,0.085-0.118,0.048-0.181
				C2.912,7.041,2.831,7.019,2.767,7.055L2.596,7.154V6.959c0-0.073-0.059-0.133-0.133-0.133S2.331,6.886,2.331,6.959v0.195
				L2.162,7.057C2.099,7.02,2.018,7.042,1.981,7.105C1.945,7.168,1.966,7.249,2.03,7.286l0.169,0.098L2.03,7.481
				C1.966,7.518,1.945,7.599,1.981,7.662C2.006,7.705,2.05,7.729,2.096,7.729c0.022,0,0.045-0.006,0.066-0.018l0.169-0.098v0.197
				c0,0.073,0.059,0.132,0.132,0.132c0.073,0,0.133-0.059,0.133-0.132V7.613l0.171,0.099C2.788,7.724,2.811,7.73,2.833,7.73
				c0.046,0,0.09-0.024,0.115-0.066C2.985,7.6,2.963,7.519,2.9,7.482z"/>
		</g>
		<path fill="#EFEEED" d="M6.905,3.676c0-0.773-0.629-1.403-1.402-1.403c-0.469,0-0.886,0.232-1.14,0.587
			c-0.291-0.164-0.623-0.255-0.97-0.255c-0.456,0-0.901,0.16-1.253,0.45C1.863,3.283,1.653,3.584,1.534,3.919
			C1.384,3.901,1.23,3.911,1.081,3.946c-0.343,0.081-0.633,0.291-0.818,0.59c-0.185,0.3-0.242,0.653-0.161,0.996
			c0.069,0.29,0.236,0.551,0.471,0.735c0.231,0.18,0.519,0.28,0.811,0.28H1.81c0.146,0,0.265-0.119,0.265-0.265
			c0-0.146-0.119-0.265-0.265-0.265H1.384c-0.367,0-0.682-0.25-0.766-0.607C0.569,5.205,0.603,4.994,0.714,4.814
			C0.824,4.635,0.998,4.51,1.203,4.461C1.263,4.447,1.324,4.44,1.385,4.44c0.085,0,0.17,0.014,0.251,0.041
			C1.708,4.506,1.787,4.498,1.853,4.46c0.066-0.038,0.112-0.102,0.128-0.177c0.137-0.665,0.73-1.148,1.411-1.148
			c0.269,0,0.526,0.075,0.747,0.209C4.351,3.473,4.53,3.656,4.655,3.882C4.657,3.885,4.659,3.889,4.66,3.892
			c0.048,0.088,0.141,0.142,0.241,0.139c0.01,0,0.02,0,0.03,0c0.354,0,0.669,0.185,0.845,0.473C5.831,4.592,5.871,4.69,5.896,4.795
			c0.017,0.073,0.026,0.146,0.027,0.219C5.928,5.467,5.618,5.881,5.159,5.99C5.084,6.008,5.007,6.017,4.93,6.017H4.71
			c-0.073,0-0.139,0.03-0.187,0.078C4.475,6.142,4.445,6.208,4.445,6.282c0,0.146,0.119,0.265,0.265,0.265h0.22
			c0.118,0,0.236-0.014,0.351-0.041c0.798-0.189,1.3-0.977,1.144-1.774C6.719,4.474,6.905,4.097,6.905,3.676z M5.869,3.824
			C5.632,3.64,5.344,3.529,5.047,3.506C4.971,3.387,4.883,3.279,4.785,3.181c0.157-0.228,0.421-0.378,0.718-0.378
			c0.481,0,0.872,0.391,0.872,0.873c0,0.193-0.063,0.372-0.17,0.516C6.115,4.052,6.001,3.928,5.869,3.824z"/>
	</g>
</g>
</svg>
