<?xml version="1.0" encoding="utf-8"?>
<!-- Generator: Adobe Illustrator 17.0.0, SVG Export Plug-In . SVG Version: 6.00 Build 0)  -->
<!DOCTYPE svg PUBLIC "-//W3C//DTD SVG 1.1//EN" "http://www.w3.org/Graphics/SVG/1.1/DTD/svg11.dtd">
<svg version="1.1" id="Слой_1" xmlns="http://www.w3.org/2000/svg" xmlns:xlink="http://www.w3.org/1999/xlink" x="0px" y="0px"
	 width="8.5px" height="8.5px" viewBox="0 0 8.5 8.5" enable-background="new 0 0 8.5 8.5" xml:space="preserve">
<g>
	<path fill="#EFEEED" d="M5.589,7.208C5.544,7.131,5.443,7.105,5.365,7.149l-0.212,0.12V7.032c0-0.089-0.074-0.161-0.165-0.161
		S4.823,6.943,4.823,7.032v0.237L4.613,7.15C4.535,7.106,4.434,7.132,4.388,7.209c-0.045,0.077-0.019,0.175,0.06,0.22l0.21,0.118
		l-0.21,0.118C4.37,7.71,4.343,7.808,4.388,7.885c0.03,0.051,0.086,0.08,0.143,0.08c0.028,0,0.056-0.007,0.082-0.021l0.21-0.118
		v0.239c0,0.089,0.074,0.161,0.165,0.161c0.091,0,0.165-0.072,0.165-0.161V7.826l0.212,0.12C5.39,7.96,5.419,7.967,5.447,7.967
		c0.057,0,0.112-0.029,0.143-0.08c0.045-0.077,0.018-0.175-0.06-0.219l-0.212-0.12l0.212-0.12C5.608,7.383,5.635,7.285,5.589,7.208z
		"/>
	<path fill="#EFEEED" d="M4.455,6.629c0.057,0,0.112-0.029,0.143-0.08c0.045-0.077,0.018-0.175-0.06-0.22l-0.212-0.12l0.212-0.12
		c0.079-0.044,0.106-0.143,0.06-0.22C4.552,5.793,4.451,5.767,4.372,5.811L4.16,5.931V5.694c0-0.089-0.074-0.161-0.165-0.161
		c-0.091,0-0.165,0.072-0.165,0.161v0.237l-0.21-0.119C3.542,5.768,3.442,5.795,3.396,5.871c-0.045,0.077-0.018,0.175,0.06,0.22
		l0.21,0.118l-0.21,0.118c-0.079,0.044-0.106,0.143-0.06,0.22c0.031,0.052,0.086,0.08,0.143,0.08c0.028,0,0.056-0.007,0.082-0.022
		l0.21-0.118v0.239c0,0.089,0.074,0.161,0.165,0.161c0.091,0,0.165-0.072,0.165-0.161V6.488l0.212,0.12
		C4.398,6.622,4.427,6.629,4.455,6.629z"/>
	<path fill="#EFEEED" d="M3.61,7.208C3.564,7.131,3.464,7.105,3.385,7.149l-0.212,0.12V7.032c0-0.089-0.074-0.161-0.165-0.161
		c-0.091,0-0.164,0.072-0.164,0.161v0.237L2.634,7.15C2.555,7.106,2.454,7.132,2.409,7.209c-0.045,0.077-0.018,0.175,0.06,0.22
		l0.21,0.118l-0.21,0.118C2.39,7.71,2.363,7.808,2.409,7.885c0.031,0.051,0.086,0.08,0.143,0.08c0.028,0,0.056-0.007,0.082-0.021
		l0.21-0.118v0.239c0,0.089,0.074,0.161,0.164,0.161c0.091,0,0.165-0.072,0.165-0.161V7.826l0.212,0.12
		C3.411,7.96,3.439,7.967,3.467,7.967c0.057,0,0.112-0.029,0.143-0.08c0.046-0.077,0.019-0.175-0.06-0.219l-0.212-0.12l0.212-0.12
		C3.628,7.383,3.655,7.285,3.61,7.208z"/>
	<path fill="#EFEEED" d="M8.342,2.659c0.11-0.266,0.149-0.553,0.116-0.835C8.455,1.827,8.453,1.829,8.45,1.832
		C8.27,2.008,8.04,2.109,7.805,2.133C7.492,2.166,7.167,2.066,6.928,1.832C6.689,1.598,6.586,1.281,6.62,0.976
		c0.025-0.23,0.128-0.454,0.308-0.63C6.931,0.343,6.933,0.34,6.936,0.338C6.649,0.305,6.354,0.343,6.082,0.451
		C5.873,0.533,5.678,0.657,5.509,0.823C5.202,1.122,5.034,1.506,5.005,1.898C4.739,1.802,4.454,1.752,4.161,1.752
		c-0.567,0-1.119,0.194-1.556,0.545C2.262,2.574,2.002,2.938,1.854,3.344c-0.187-0.021-0.378-0.01-0.563,0.033
		C0.865,3.476,0.505,3.73,0.275,4.093c-0.23,0.363-0.301,0.793-0.2,1.208C0.161,5.654,0.368,5.971,0.66,6.193
		c0.287,0.219,0.644,0.339,1.007,0.339h0.529c0.182,0,0.329-0.144,0.329-0.322c0-0.178-0.147-0.322-0.329-0.322H1.667
		c-0.455,0-0.846-0.303-0.951-0.736c-0.06-0.249-0.018-0.505,0.119-0.722c0.137-0.217,0.353-0.369,0.607-0.428
		c0.075-0.017,0.151-0.026,0.226-0.026c0.106,0,0.211,0.017,0.312,0.05C2.07,4.056,2.168,4.047,2.25,4.001
		c0.082-0.046,0.14-0.124,0.159-0.214c0.17-0.807,0.907-1.393,1.752-1.393c0.352,0,0.689,0.101,0.974,0.282
		c0.247,0.157,0.455,0.373,0.601,0.636c0.059,0.107,0.175,0.172,0.299,0.168c0.012,0,0.025-0.001,0.037-0.001
		c0.271,0,0.524,0.085,0.729,0.233C7.031,3.877,7.201,4.12,7.271,4.407c0.156,0.646-0.254,1.296-0.916,1.449
		C6.262,5.878,6.166,5.889,6.071,5.889H5.798c-0.091,0-0.173,0.036-0.233,0.094C5.505,6.041,5.468,6.122,5.468,6.21
		c0,0.178,0.147,0.322,0.329,0.322h0.273c0.146,0,0.293-0.017,0.436-0.05C7.521,6.247,8.152,5.25,7.911,4.259
		C7.846,3.988,7.718,3.736,7.54,3.521c0.152-0.078,0.294-0.179,0.421-0.303C8.131,3.053,8.258,2.862,8.342,2.659z M6.951,3.05
		C6.723,2.934,6.472,2.863,6.216,2.843C6.072,2.625,5.894,2.435,5.692,2.276C5.604,1.933,5.695,1.555,5.966,1.285
		C6.01,1.651,6.175,2.006,6.463,2.287C6.75,2.568,7.113,2.729,7.488,2.771C7.335,2.918,7.147,3.011,6.951,3.05z"/>
</g>
</svg>
