<?xml version="1.0" encoding="utf-8"?>
<!-- Generator: Adobe Illustrator 17.0.0, SVG Export Plug-In . SVG Version: 6.00 Build 0)  -->
<!DOCTYPE svg PUBLIC "-//W3C//DTD SVG 1.1//EN" "http://www.w3.org/Graphics/SVG/1.1/DTD/svg11.dtd">
<svg version="1.1" id="Слой_1" xmlns="http://www.w3.org/2000/svg" xmlns:xlink="http://www.w3.org/1999/xlink" x="0px" y="0px"
	 width="8.5px" height="8.5px" viewBox="0 0 8.5 8.5" enable-background="new 0 0 8.5 8.5" xml:space="preserve">
<g>
	<g>
		<path fill="#EFEEED" d="M5.815,2.28c-0.13,0-0.234-0.121-0.234-0.271V1.225c0-0.15,0.105-0.271,0.234-0.271
			c0.129,0,0.235,0.121,0.235,0.271v0.784C6.05,2.159,5.944,2.28,5.815,2.28z"/>
		<path fill="#EFEEED" d="M4.627,2.85c-0.06,0-0.12-0.027-0.166-0.079l-0.48-0.555c-0.092-0.106-0.092-0.277,0-0.383
			c0.092-0.106,0.24-0.106,0.332,0l0.48,0.555c0.092,0.106,0.092,0.278,0,0.383C4.747,2.823,4.687,2.85,4.627,2.85z"/>
		<path fill="#EFEEED" d="M7.483,6.152c-0.06,0-0.12-0.026-0.166-0.079l-0.48-0.555c-0.092-0.106-0.092-0.277,0-0.383
			c0.092-0.106,0.24-0.106,0.332,0l0.48,0.555c0.092,0.106,0.092,0.277,0,0.383C7.603,6.125,7.543,6.152,7.483,6.152z"/>
		<path fill="#EFEEED" d="M8.174,4.223H7.495c-0.13,0-0.235-0.121-0.235-0.271c0-0.15,0.105-0.271,0.235-0.271h0.679
			c0.13,0,0.235,0.121,0.235,0.271C8.408,4.102,8.303,4.223,8.174,4.223z"/>
		<path fill="#EFEEED" d="M7.003,2.85c-0.06,0-0.12-0.027-0.166-0.079c-0.092-0.106-0.092-0.277,0-0.383l0.48-0.555
			c0.092-0.106,0.24-0.106,0.332,0c0.092,0.106,0.092,0.277,0,0.383L7.169,2.77C7.123,2.823,7.063,2.85,7.003,2.85z"/>
	</g>
	<g>
		<path fill="#EFEEED" d="M5.241,7.792H1.322c-0.129,0-0.235-0.121-0.235-0.271c0-0.15,0.105-0.271,0.235-0.271h3.919
			c0.129,0,0.234,0.121,0.234,0.271C5.475,7.67,5.37,7.792,5.241,7.792z"/>
		<path fill="#EFEEED" d="M4.28,6.889H0.361c-0.129,0-0.234-0.121-0.234-0.271c0-0.15,0.105-0.271,0.234-0.271H4.28
			c0.13,0,0.235,0.121,0.235,0.271C4.515,6.767,4.41,6.889,4.28,6.889z"/>
		<path fill="#EFEEED" d="M4.772,5.986H0.853c-0.13,0-0.234-0.121-0.234-0.271c0-0.15,0.105-0.271,0.234-0.271h3.919
			c0.129,0,0.235,0.121,0.235,0.271C5.007,5.865,4.901,5.986,4.772,5.986z"/>
		<path fill="#EFEEED" d="M7.056,3.952c0-0.791-0.557-1.434-1.241-1.434c-0.421,0-0.794,0.243-1.018,0.615
			c-0.262-0.177-0.565-0.275-0.88-0.275c-0.404,0-0.797,0.163-1.108,0.46C2.563,3.551,2.378,3.858,2.273,4.2
			C2.14,4.183,2.004,4.192,1.872,4.228c-0.303,0.083-0.56,0.297-0.724,0.604C1.093,4.936,1.05,5.046,1.021,5.159h0.505
			C1.533,5.145,1.54,5.131,1.547,5.117C1.645,4.934,1.799,4.805,1.98,4.756c0.053-0.014,0.107-0.022,0.161-0.022
			c0.076,0,0.15,0.014,0.222,0.043c0.064,0.025,0.134,0.017,0.192-0.022c0.058-0.039,0.1-0.104,0.113-0.181
			c0.121-0.681,0.646-1.175,1.248-1.175c0.249,0,0.487,0.084,0.688,0.233C4.784,3.765,4.934,3.95,5.039,4.174
			C5.051,4.2,5.067,4.223,5.085,4.243c0.045,0.048,0.104,0.075,0.167,0.073c0.009,0,0.018-0.001,0.026-0.001
			c0.316,0,0.598,0.193,0.753,0.493c0.045,0.088,0.08,0.185,0.101,0.288c0.016,0.078,0.024,0.157,0.024,0.234
			c0,0.46-0.273,0.877-0.676,0.988C5.413,6.337,5.345,6.347,5.277,6.347H4.699C4.738,6.427,4.76,6.519,4.76,6.618
			c0,0.098-0.022,0.191-0.061,0.271h0.577c0.104,0,0.209-0.014,0.311-0.042c0.698-0.191,1.14-0.982,1.016-1.788
			C6.88,4.795,7.056,4.397,7.056,3.952z M6.107,4.104C5.898,3.915,5.643,3.801,5.381,3.778c-0.063-0.112-0.135-0.216-0.214-0.31
			C5.305,3.223,5.544,3.06,5.815,3.06c0.426,0,0.772,0.4,0.772,0.892c0,0.209-0.063,0.402-0.167,0.554
			C6.337,4.353,6.232,4.216,6.107,4.104z"/>
	</g>
</g>
</svg>
