<?xml version="1.0" encoding="utf-8"?>
<!-- Generator: Adobe Illustrator 17.0.0, SVG Export Plug-In . SVG Version: 6.00 Build 0)  -->
<!DOCTYPE svg PUBLIC "-//W3C//DTD SVG 1.1//EN" "http://www.w3.org/Graphics/SVG/1.1/DTD/svg11.dtd">
<svg version="1.1" id="Слой_1" xmlns="http://www.w3.org/2000/svg" xmlns:xlink="http://www.w3.org/1999/xlink" x="0px" y="0px"
	 width="8.5px" height="8.5px" viewBox="0 0 8.5 8.5" enable-background="new 0 0 8.5 8.5" xml:space="preserve">
<g>
	<path fill="#EFEEED" d="M6.332,7.265H1.537c-0.158,0-0.287,0.141-0.287,0.315s0.128,0.315,0.287,0.315h4.795
		c0.158,0,0.287-0.141,0.287-0.315C6.619,7.406,6.49,7.265,6.332,7.265z"/>
	<path fill="#EFEEED" d="M5.443,6.53c0-0.174-0.128-0.315-0.287-0.315H0.362c-0.158,0-0.287,0.141-0.287,0.315
		s0.129,0.315,0.287,0.315h4.795C5.315,6.846,5.443,6.704,5.443,6.53z"/>
	<path fill="#EFEEED" d="M8.356,3.046c0.096-0.261,0.13-0.543,0.101-0.819C8.454,2.23,8.452,2.233,8.449,2.235
		C8.292,2.408,8.093,2.507,7.887,2.531C7.615,2.563,7.332,2.464,7.123,2.235c-0.208-0.229-0.298-0.54-0.269-0.84
		C6.876,1.17,6.966,0.95,7.123,0.777C7.125,0.775,7.128,0.772,7.13,0.77C6.88,0.738,6.623,0.775,6.386,0.881
		C6.204,0.961,6.034,1.083,5.886,1.245C5.619,1.539,5.473,1.916,5.447,2.3c-0.232-0.094-0.48-0.144-0.735-0.144
		c-0.494,0-0.976,0.19-1.356,0.535C3.056,2.963,2.83,3.32,2.701,3.719c-0.163-0.02-0.33-0.01-0.491,0.032
		C1.84,3.847,1.525,4.097,1.325,4.453C1.257,4.574,1.206,4.702,1.17,4.834h0.618c0.008-0.017,0.016-0.033,0.026-0.049
		c0.12-0.213,0.308-0.362,0.529-0.42C2.408,4.348,2.474,4.339,2.54,4.339c0.092,0,0.184,0.017,0.272,0.049
		c0.078,0.029,0.163,0.02,0.235-0.025c0.071-0.045,0.122-0.121,0.138-0.21c0.148-0.792,0.79-1.367,1.527-1.367
		c0.307,0,0.601,0.099,0.849,0.276c0.215,0.154,0.397,0.366,0.524,0.624c0.052,0.105,0.153,0.169,0.261,0.165
		c0.011,0,0.021-0.001,0.032-0.001c0.236,0,0.457,0.084,0.636,0.228c0.2,0.161,0.348,0.399,0.409,0.681
		c0.137,0.634-0.222,1.271-0.798,1.421C6.543,6.204,6.459,6.215,6.376,6.215H5.67C5.717,6.308,5.745,6.415,5.745,6.53
		c0,0.114-0.027,0.222-0.075,0.315h0.707c0.127,0,0.255-0.017,0.38-0.049c0.884-0.23,1.433-1.208,1.224-2.18
		C7.923,4.351,7.812,4.103,7.656,3.893c0.132-0.076,0.256-0.175,0.367-0.297C8.171,3.433,8.282,3.246,8.356,3.046z M7.143,3.43
		c-0.198-0.114-0.417-0.184-0.64-0.203C6.377,3.013,6.222,2.826,6.046,2.671C5.969,2.335,6.049,1.964,6.285,1.699
		c0.038,0.359,0.182,0.707,0.433,0.982c0.251,0.275,0.567,0.434,0.894,0.475C7.478,3.301,7.314,3.392,7.143,3.43z"/>
	<path fill="#EFEEED" d="M0.964,5.795h4.795c0.159,0,0.287-0.141,0.287-0.315S5.917,5.165,5.758,5.165H0.964
		c-0.158,0-0.287,0.141-0.287,0.315C0.677,5.654,0.805,5.795,0.964,5.795z"/>
</g>
</svg>
