<?xml version="1.0" encoding="utf-8"?>
<!-- Generator: Adobe Illustrator 17.0.0, SVG Export Plug-In . SVG Version: 6.00 Build 0)  -->
<!DOCTYPE svg PUBLIC "-//W3C//DTD SVG 1.1//EN" "http://www.w3.org/Graphics/SVG/1.1/DTD/svg11.dtd">
<svg version="1.1" id="Слой_1" xmlns="http://www.w3.org/2000/svg" xmlns:xlink="http://www.w3.org/1999/xlink" x="0px" y="0px"
	 width="19.84px" height="17.01px" viewBox="0 0 19.84 17.01" enable-background="new 0 0 19.84 17.01" xml:space="preserve">
<path fill="#EEEDED" d="M19.76,9.403c-0.246-1.04-0.845-1.973-1.684-2.629c-0.733-0.572-1.625-0.917-2.545-0.988
	c-1.121-1.73-3.043-2.787-5.125-2.787c-1.414,0-2.792,0.494-3.881,1.392C5.666,5.098,5.018,6.029,4.65,7.066
	C4.184,7.013,3.706,7.041,3.246,7.15c-1.061,0.251-1.961,0.9-2.534,1.829c-0.572,0.928-0.75,2.024-0.498,3.085
	c0.213,0.9,0.731,1.708,1.458,2.276c0.716,0.559,1.608,0.867,2.512,0.867h0.025h1.289c0.001,0,7.297,0,8.989,0l0,0
	c0.001,0,0.001,0,0.001,0c0.221,0,0.347,0,0.347,0l0,0h0.334c0.365,0,0.731-0.043,1.088-0.127
	C18.787,14.48,20.359,11.934,19.76,9.403z M15.879,13.482c-0.233,0.055-0.472,0.083-0.71,0.083h-0.681l0,0H5.502H4.209
	c-0.002,0-0.004,0-0.007,0H4.183c-1.135,0-2.111-0.773-2.373-1.879c-0.151-0.635-0.045-1.29,0.298-1.845
	c0.343-0.555,0.881-0.944,1.515-1.093C3.81,8.704,4,8.682,4.188,8.682c0.264,0,0.527,0.043,0.779,0.129
	C5.19,8.886,5.435,8.862,5.639,8.745c0.204-0.117,0.348-0.316,0.395-0.546c0.424-2.061,2.262-3.557,4.371-3.557
	c1.641,0,3.147,0.899,3.928,2.344c0.148,0.273,0.438,0.44,0.748,0.43c0.031-0.001,0.061-0.001,0.092-0.001
	c1.43,0,2.659,0.974,2.989,2.367C18.553,11.431,17.528,13.091,15.879,13.482z"/>
</svg>
