<?xml version="1.0" encoding="utf-8"?>
<!-- Generator: Adobe Illustrator 17.0.0, SVG Export Plug-In . SVG Version: 6.00 Build 0)  -->
<!DOCTYPE svg PUBLIC "-//W3C//DTD SVG 1.1//EN" "http://www.w3.org/Graphics/SVG/1.1/DTD/svg11.dtd">
<svg version="1.1" id="Слой_1" xmlns="http://www.w3.org/2000/svg" xmlns:xlink="http://www.w3.org/1999/xlink" x="0px" y="0px"
	 width="19.84px" height="11.34px" viewBox="0 0 19.84 11.34" enable-background="new 0 0 19.84 11.34" xml:space="preserve">
<g>
	<path fill="#EEEDED" d="M12.71,2.635c-0.304,0-0.55-0.224-0.55-0.501V0.682c0-0.277,0.246-0.501,0.55-0.501
		c0.304,0,0.55,0.225,0.55,0.501v1.451C13.26,2.41,13.015,2.635,12.71,2.635z"/>
	<path fill="#EEEDED" d="M9.923,3.687c-0.141,0-0.281-0.049-0.389-0.147L8.408,2.514c-0.215-0.196-0.215-0.513,0-0.709
		s0.564-0.196,0.778,0l1.125,1.026c0.215,0.196,0.215,0.513,0,0.709C10.204,3.638,10.064,3.687,9.923,3.687z"/>
	<path fill="#EEEDED" d="M16.625,9.795c-0.141,0-0.281-0.049-0.39-0.146l-1.125-1.027c-0.215-0.196-0.215-0.513,0-0.709
		c0.215-0.196,0.564-0.196,0.778,0l1.126,1.027c0.215,0.196,0.215,0.513,0,0.709C16.905,9.746,16.765,9.795,16.625,9.795z"/>
	<path fill="#EEEDED" d="M18.245,6.228h-1.592c-0.304,0-0.55-0.225-0.55-0.501c0-0.277,0.246-0.501,0.55-0.501h1.592
		c0.304,0,0.55,0.225,0.55,0.501C18.795,6.004,18.549,6.228,18.245,6.228z"/>
	<path fill="#EEEDED" d="M15.498,3.687c-0.141,0-0.281-0.049-0.39-0.147c-0.215-0.196-0.215-0.513,0-0.709l1.125-1.026
		c0.215-0.196,0.564-0.196,0.778,0c0.214,0.196,0.215,0.513,0,0.709L15.886,3.54C15.78,3.638,15.639,3.687,15.498,3.687z"/>
	<path fill="#EEEDED" d="M15.622,5.726c0-1.463-1.306-2.653-2.911-2.653c-0.974,0-1.838,0.438-2.367,1.111
		C9.741,3.873,9.051,3.702,8.331,3.702c-0.947,0-1.871,0.301-2.6,0.85c-0.575,0.433-1.01,1-1.257,1.635
		C4.163,6.154,3.842,6.172,3.534,6.238c-0.711,0.154-1.315,0.55-1.698,1.117C1.449,7.922,1.331,8.591,1.499,9.239
		c0.142,0.55,0.489,1.044,0.977,1.391c0.479,0.341,1.077,0.529,1.684,0.529h7.362c0.245,0,0.489-0.026,0.729-0.078
		c1.656-0.357,2.699-1.848,2.374-3.357C15.236,7.238,15.622,6.522,15.622,5.726z M11.998,10.106
		c-0.157,0.034-0.317,0.051-0.476,0.051H4.16c-0.761,0-1.415-0.473-1.59-1.148C2.469,8.62,2.54,8.221,2.77,7.882
		C3,7.543,3.361,7.306,3.786,7.214c0.125-0.026,0.252-0.041,0.378-0.041c0.177,0,0.353,0.026,0.522,0.078
		c0.149,0.046,0.313,0.031,0.45-0.04c0.137-0.072,0.233-0.193,0.265-0.334c0.284-1.26,1.516-2.174,2.929-2.174
		c0.558,0,1.092,0.141,1.552,0.395c0.44,0.243,0.812,0.59,1.069,1.016c0.005,0.006,0.009,0.014,0.013,0.021
		c0.1,0.167,0.293,0.269,0.501,0.263c0.021-0.001,0.042-0.001,0.062-0.001c0.735,0,1.389,0.349,1.754,0.895
		c0.111,0.167,0.196,0.352,0.248,0.551c0.036,0.138,0.054,0.277,0.055,0.413C13.594,9.117,12.952,9.9,11.998,10.106z M13.47,6.007
		c-0.491-0.349-1.088-0.56-1.705-0.603c-0.159-0.224-0.342-0.429-0.545-0.613c0.327-0.431,0.873-0.714,1.491-0.714
		c0.999,0,1.811,0.741,1.811,1.651c0,0.365-0.13,0.703-0.352,0.976C13.98,6.439,13.744,6.203,13.47,6.007z"/>
</g>
</svg>
