<?xml version="1.0" encoding="utf-8"?>
<!-- Generator: Adobe Illustrator 17.0.0, SVG Export Plug-In . SVG Version: 6.00 Build 0)  -->
<!DOCTYPE svg PUBLIC "-//W3C//DTD SVG 1.1//EN" "http://www.w3.org/Graphics/SVG/1.1/DTD/svg11.dtd">
<svg version="1.1" id="Слой_1" xmlns="http://www.w3.org/2000/svg" xmlns:xlink="http://www.w3.org/1999/xlink" x="0px" y="0px"
	 width="19.84px" height="11.34px" viewBox="0 0 19.84 11.34" enable-background="new 0 0 19.84 11.34" xml:space="preserve">
<path fill="#EEEDED" d="M18.821,4.981c-0.187-0.788-0.64-1.496-1.278-1.994c-0.555-0.434-1.232-0.695-1.93-0.749
	c-0.85-1.312-2.307-2.114-3.887-2.114c-1.072,0-2.117,0.375-2.943,1.056c-0.281,0.232-0.533,0.495-0.75,0.783
	C7.033,2.006,6.066,2.376,5.292,3.014C4.642,3.551,4.15,4.256,3.871,5.042c-0.353-0.04-0.715-0.02-1.065,0.064
	c-0.805,0.19-1.487,0.683-1.922,1.387C0.45,7.196,0.316,8.027,0.507,8.832c0.162,0.682,0.554,1.295,1.106,1.726
	c0.543,0.424,1.22,0.658,1.905,0.658h0.02h8.311c0.277,0,0.554-0.033,0.824-0.097c1.014-0.24,1.825-0.893,2.298-1.737h0.369
	c0.277,0,0.554-0.033,0.825-0.097C18.083,8.83,19.275,6.899,18.821,4.981z M13.397,9.381c-0.279,0.249-0.622,0.434-1.012,0.526
	c-0.177,0.041-0.358,0.063-0.538,0.063H3.532H3.518c-0.861,0-1.601-0.586-1.8-1.425C1.604,8.063,1.684,7.567,1.944,7.146
	c0.26-0.421,0.667-0.715,1.149-0.83c0.141-0.033,0.285-0.05,0.428-0.05c0.132,0,0.263,0.014,0.393,0.043
	C3.98,6.323,4.046,6.342,4.111,6.364c0.169,0.057,0.355,0.039,0.51-0.049c0.155-0.089,0.264-0.24,0.3-0.414
	c0.321-1.563,1.715-2.698,3.314-2.698c0.157,0,0.313,0.011,0.466,0.032c1.059,0.146,1.996,0.788,2.514,1.746
	c0.112,0.207,0.332,0.334,0.566,0.326c0.024-0.001,0.047-0.001,0.07-0.001c1.084,0,2.017,0.738,2.266,1.795
	c0.083,0.351,0.081,0.703,0.009,1.035C14.021,8.617,13.764,9.054,13.397,9.381z M15.877,8.073c-0.16,0.037-0.323,0.058-0.486,0.062
	c0.061-0.428,0.044-0.875-0.062-1.321c-0.187-0.788-0.64-1.496-1.278-1.994c-0.556-0.435-1.232-0.695-1.93-0.749
	c-0.604-0.933-1.514-1.607-2.557-1.919c0.592-0.492,1.35-0.784,2.162-0.784c1.245,0,2.387,0.681,2.979,1.778
	c0.112,0.207,0.331,0.334,0.566,0.326c0.023-0.001,0.047-0.001,0.07-0.001c1.084,0,2.017,0.738,2.266,1.795
	C17.905,6.518,17.128,7.777,15.877,8.073z"/>
</svg>
