<?xml version="1.0" encoding="utf-8"?>
<!-- Generator: Adobe Illustrator 17.0.0, SVG Export Plug-In . SVG Version: 6.00 Build 0)  -->
<!DOCTYPE svg PUBLIC "-//W3C//DTD SVG 1.1//EN" "http://www.w3.org/Graphics/SVG/1.1/DTD/svg11.dtd">
<svg version="1.1" id="Ebene_1" xmlns="http://www.w3.org/2000/svg" xmlns:xlink="http://www.w3.org/1999/xlink" x="0px" y="0px"
	 width="800px" height="600px" viewBox="0 0 800 600" enable-background="new 0 0 800 600" xml:space="preserve">
<g>
	<path fill="#333333" d="M476.994,240.21c-0.68-2.872-2.334-5.454-4.656-7.269c-2.025-1.581-4.492-2.533-7.035-2.73
		c-3.098-4.785-8.41-7.705-14.167-7.705c-3.907,0-7.718,1.366-10.727,3.848c-2.371,1.956-4.164,4.527-5.182,7.395
		c-1.285-0.147-2.608-0.069-3.882,0.232c-2.935,0.695-5.421,2.49-7.005,5.056c-1.584,2.565-2.072,5.594-1.379,8.528
		c0.589,2.487,2.022,4.722,4.031,6.292c1.012,0.789,2.149,1.397,3.354,1.803l1.74-4.202c-2.305-0.654-4.132-2.503-4.709-4.938
		c-0.415-1.754-0.121-3.565,0.824-5.099c0.947-1.534,2.434-2.607,4.189-3.023c0.514-0.121,1.038-0.183,1.561-0.183
		c0.731,0,1.455,0.12,2.152,0.355c0.615,0.209,1.292,0.144,1.857-0.181c0.564-0.323,0.963-0.874,1.095-1.511
		c1.172-5.698,6.253-9.834,12.081-9.834c4.538,0,8.7,2.484,10.86,6.481c0.408,0.755,1.207,1.216,2.065,1.189
		c0.085-0.003,0.169-0.004,0.255-0.004c3.953,0,7.35,2.691,8.262,6.544c0.885,3.738-0.857,7.493-4.025,9.322
		c-0.054,0.208-0.121,0.415-0.206,0.618l-2.029,4.899c0.333-0.052,0.665-0.116,0.993-0.193
		C474.307,254.245,478.65,247.206,476.994,240.21z"/>
	<path fill="#333333" d="M432.764,264.248c-0.29,0-0.584-0.056-0.868-0.174c-1.157-0.479-1.708-1.807-1.227-2.964l5.203-12.562
		c0.479-1.158,1.807-1.708,2.965-1.229c1.158,0.48,1.707,1.808,1.229,2.965l-5.205,12.562
		C434.498,263.72,433.653,264.248,432.764,264.248z"/>
	<path fill="#333333" d="M458.846,264.248c-0.29,0-0.584-0.056-0.868-0.174c-1.158-0.479-1.708-1.807-1.227-2.964l5.203-12.562
		c0.478-1.158,1.807-1.708,2.965-1.229c1.157,0.48,1.707,1.808,1.227,2.965l-5.203,12.562
		C460.58,263.72,459.734,264.248,458.846,264.248z"/>
	<path fill="#333333" d="M438.299,271.874c-0.29,0-0.584-0.056-0.868-0.173c-1.157-0.479-1.708-1.807-1.228-2.965l8.361-20.188
		c0.48-1.158,1.808-1.708,2.965-1.229c1.158,0.48,1.708,1.808,1.228,2.965l-8.362,20.188
		C440.033,271.346,439.188,271.874,438.299,271.874z"/>
	<path fill="#333333" d="M446.943,271.991c-0.289,0-0.583-0.056-0.867-0.173c-1.158-0.479-1.707-1.807-1.229-2.965l8.411-20.305
		c0.479-1.158,1.808-1.708,2.966-1.229c1.156,0.48,1.707,1.808,1.227,2.965l-8.41,20.306
		C448.68,271.463,447.834,271.991,446.943,271.991z"/>
</g>
<g>
	<path fill="#333333" d="M376.995,240.314c-0.68-2.873-2.334-5.455-4.657-7.269c-2.025-1.581-4.492-2.533-7.035-2.73
		c-3.097-4.785-8.41-7.704-14.167-7.704c-3.907,0-7.717,1.366-10.727,3.848c-2.373,1.956-4.164,4.527-5.182,7.395
		c-1.287-0.147-2.607-0.069-3.883,0.233c-2.934,0.695-5.421,2.49-7.005,5.056c-1.583,2.566-2.073,5.594-1.378,8.528
		c0.589,2.487,2.02,4.722,4.032,6.292c1.979,1.546,4.445,2.396,6.944,2.396h0.071h0.917l1.88-4.538h-2.797c-0.006,0-0.012,0-0.018,0
		l-0.053,0c-3.138,0-5.835-2.136-6.56-5.196c-0.415-1.754-0.123-3.565,0.824-5.099c0.947-1.534,2.434-2.607,4.188-3.023
		c0.514-0.121,1.039-0.183,1.561-0.183c0.731,0,1.456,0.12,2.152,0.355c0.616,0.209,1.292,0.144,1.857-0.181
		c0.564-0.323,0.962-0.874,1.094-1.511c1.172-5.698,6.253-9.834,12.082-9.834c4.539,0,8.7,2.484,10.861,6.481
		c0.408,0.755,1.207,1.216,2.064,1.189c0.086-0.003,0.171-0.004,0.255-0.004c3.953,0,7.35,2.691,8.262,6.544
		c1.08,4.561-1.752,9.149-6.313,10.229c-0.645,0.152-1.305,0.23-1.962,0.23h-0.04l-1.88,4.538h1.921c1.009,0,2.02-0.119,3.006-0.353
		C374.306,254.348,378.65,247.309,376.995,240.314z"/>
	<path fill="#333333" d="M337.588,264.351c-0.289,0-0.583-0.056-0.867-0.174c-1.158-0.479-1.708-1.807-1.229-2.964l5.204-12.562
		c0.48-1.158,1.808-1.708,2.965-1.229c1.158,0.48,1.708,1.808,1.229,2.965l-5.204,12.563
		C339.324,263.823,338.478,264.351,337.588,264.351z"/>
	<path fill="#333333" d="M343.124,271.977c-0.289,0-0.584-0.056-0.868-0.173c-1.158-0.479-1.708-1.807-1.228-2.965l8.362-20.188
		c0.479-1.158,1.807-1.708,2.965-1.229c1.158,0.48,1.707,1.808,1.228,2.965l-8.362,20.188
		C344.859,271.449,344.014,271.977,343.124,271.977z"/>
	<path fill="#333333" d="M356.263,261.245c-0.29,0-0.583-0.056-0.868-0.174c-1.158-0.479-1.707-1.807-1.228-2.964l3.917-9.456
		c0.479-1.158,1.807-1.708,2.965-1.229c1.158,0.48,1.708,1.808,1.228,2.965l-3.917,9.457
		C357.999,260.717,357.153,261.245,356.263,261.245z"/>
</g>
<g>
	<path fill="#333333" d="M242.295,264.351c-0.29,0-0.583-0.056-0.867-0.174c-1.158-0.479-1.708-1.807-1.228-2.964l5.203-12.562
		c0.48-1.158,1.807-1.708,2.965-1.229c1.158,0.48,1.708,1.808,1.228,2.965l-5.204,12.563
		C244.031,263.823,243.186,264.351,242.295,264.351z"/>
	<path fill="#333333" d="M276.995,240.314c-0.681-2.873-2.334-5.455-4.657-7.269c-2.025-1.581-4.492-2.533-7.035-2.73
		c-3.097-4.785-8.41-7.704-14.167-7.704c-3.907,0-7.717,1.366-10.727,3.848c-2.372,1.956-4.164,4.527-5.182,7.395
		c-1.286-0.147-2.607-0.069-3.882,0.233c-2.933,0.695-5.421,2.49-7.005,5.056c-1.584,2.566-2.073,5.594-1.378,8.528
		c0.588,2.487,2.02,4.722,4.031,6.292c1.979,1.546,4.445,2.396,6.944,2.396h0.071h5.624l1.88-4.538h-7.504c-0.006,0-0.012,0-0.019,0
		l-0.053,0c-3.138,0-5.836-2.136-6.56-5.196c-0.415-1.754-0.122-3.565,0.824-5.099c0.947-1.534,2.435-2.607,4.189-3.023
		c0.513-0.121,1.039-0.183,1.561-0.183c0.732,0,1.456,0.12,2.152,0.355c0.616,0.209,1.293,0.144,1.858-0.181
		c0.564-0.323,0.962-0.874,1.094-1.511c1.172-5.698,6.253-9.834,12.082-9.834c4.538,0,8.7,2.484,10.861,6.481
		c0.408,0.755,1.207,1.216,2.065,1.189c0.085-0.003,0.17-0.004,0.255-0.004c3.952,0,7.35,2.691,8.262,6.544
		c1.08,4.561-1.752,9.149-6.313,10.229c-0.645,0.152-1.305,0.23-1.962,0.23h-4.027l-1.88,4.538h5.908
		c1.008,0,2.02-0.119,3.006-0.353C274.306,254.348,278.65,247.309,276.995,240.314z"/>
	<path fill="#333333" d="M247.831,271.977c-0.29,0-0.584-0.056-0.868-0.173c-1.158-0.479-1.708-1.807-1.228-2.965l8.362-20.188
		c0.479-1.158,1.807-1.708,2.964-1.229c1.158,0.48,1.707,1.808,1.228,2.965l-8.362,20.188
		C249.566,271.449,248.721,271.977,247.831,271.977z"/>
</g>
<g>
	<path fill="#333333" d="M568.053,169.431h-37.934c-1.252,0-2.268-1.017-2.268-2.27c0-1.253,1.016-2.269,2.268-2.269h37.934
		c1.252,0,2.27,1.016,2.27,2.269C570.322,168.415,569.305,169.431,568.053,169.431z"/>
	<path fill="#333333" d="M558.756,161.874h-37.934c-1.252,0-2.27-1.016-2.27-2.27c0-1.253,1.018-2.269,2.27-2.269h37.934
		c1.254,0,2.27,1.016,2.27,2.269C561.025,160.858,560.01,161.874,558.756,161.874z"/>
	<path fill="#333333" d="M563.514,154.316h-37.932c-1.254,0-2.269-1.015-2.269-2.268c0-1.254,1.016-2.269,2.269-2.269h37.932
		c1.254,0,2.27,1.015,2.27,2.269C565.783,153.301,564.768,154.316,563.514,154.316z"/>
	<path fill="#333333" d="M581.096,145.83c-0.68-2.872-2.332-5.454-4.656-7.269c-2.025-1.581-4.49-2.533-7.035-2.73
		c-3.098-4.784-8.41-7.705-14.168-7.705c-3.906,0-7.717,1.366-10.727,3.849c-2.371,1.956-4.164,4.526-5.182,7.395
		c-1.285-0.147-2.607-0.069-3.881,0.232c-2.934,0.693-5.422,2.489-7.006,5.055c-0.535,0.867-0.945,1.787-1.227,2.739h4.887
		c0.063-0.12,0.129-0.238,0.203-0.355c0.945-1.533,2.434-2.607,4.188-3.022c0.514-0.122,1.039-0.184,1.56-0.184
		c0.731,0,1.455,0.12,2.152,0.356c0.615,0.208,1.293,0.142,1.855-0.181c0.567-0.324,0.965-0.874,1.096-1.512
		c1.172-5.698,6.254-9.834,12.08-9.834c4.539,0,8.701,2.483,10.861,6.481c0.408,0.755,1.209,1.215,2.064,1.189
		c0.086-0.003,0.17-0.004,0.256-0.004c3.953,0,7.35,2.691,8.262,6.543c1.08,4.562-1.752,9.15-6.313,10.23
		c-0.645,0.152-1.305,0.23-1.961,0.23h-5.59c0.375,0.672,0.592,1.445,0.592,2.269c0,0.824-0.217,1.599-0.592,2.27h5.59
		c1.01,0,2.019-0.119,3.006-0.353C578.408,159.865,582.752,152.826,581.096,145.83z"/>
</g>
<g>
	<path fill="#333333" d="M676.994,240.101c-0.68-2.873-2.334-5.454-4.656-7.268c-2.025-1.581-4.492-2.534-7.035-2.731
		c-3.098-4.784-8.41-7.704-14.167-7.704c-3.907,0-7.718,1.366-10.727,3.848c-2.371,1.955-4.164,4.527-5.182,7.394
		c-1.285-0.147-2.607-0.069-3.882,0.233c-2.935,0.694-5.421,2.489-7.005,5.055c-1.584,2.566-2.072,5.594-1.379,8.528
		c0.589,2.487,2.021,4.721,4.031,6.292c1.979,1.545,4.445,2.396,6.945,2.396h0.07h0.918l1.879-4.538h-2.797
		c-0.006,0-0.012,0-0.018,0l-0.053,0c-3.139,0-5.836-2.136-6.56-5.196c-0.415-1.754-0.121-3.565,0.824-5.099
		c0.947-1.534,2.435-2.607,4.189-3.022c0.514-0.122,1.038-0.184,1.561-0.184c0.731,0,1.455,0.12,2.152,0.355
		c0.615,0.209,1.292,0.144,1.857-0.18c0.564-0.324,0.963-0.874,1.095-1.511c1.172-5.698,6.253-9.833,12.081-9.833
		c4.538,0,8.7,2.483,10.86,6.481c0.408,0.755,1.207,1.215,2.065,1.189c0.085-0.003,0.169-0.004,0.255-0.004
		c3.953,0,7.35,2.691,8.262,6.544c0.998,4.213-1.343,8.45-5.301,9.923l-2.096,5.044c0.716-0.049,1.428-0.155,2.129-0.321
		C674.307,254.136,678.65,247.097,676.994,240.101z"/>
	<path fill="#333333" d="M637.588,264.139c-0.289,0-0.583-0.056-0.867-0.174c-1.158-0.479-1.707-1.807-1.228-2.964l5.203-12.562
		c0.479-1.158,1.807-1.708,2.965-1.228c1.157,0.48,1.708,1.807,1.228,2.965l-5.203,12.563
		C639.324,263.611,638.478,264.139,637.588,264.139z"/>
	<path fill="#333333" d="M643.124,271.764c-0.29,0-0.584-0.056-0.868-0.173c-1.158-0.48-1.707-1.808-1.229-2.965l8.363-20.188
		c0.479-1.158,1.807-1.708,2.965-1.228c1.157,0.48,1.707,1.807,1.228,2.965l-8.362,20.188
		C644.859,271.236,644.014,271.764,643.124,271.764z"/>
	<g>
		<polygon fill="#333333" points="659.492,255.559 662.699,255.559 655.848,272.1 657.487,260.182 654.438,260.182 656.84,246.97 
			663.079,246.97 		"/>
	</g>
</g>
<g>
	<path fill="#333333" d="M160.726,329.265c-1.253,0-2.269-1.015-2.269-2.268v-6.567c0-1.254,1.016-2.27,2.269-2.27
		c1.253,0,2.269,1.016,2.269,2.27v6.567C162.995,328.25,161.979,329.265,160.726,329.265z"/>
	<path fill="#333333" d="M149.227,334.028c-0.581,0-1.161-0.222-1.604-0.665l-4.644-4.644c-0.887-0.887-0.887-2.322,0-3.209
		c0.886-0.887,2.323-0.886,3.209,0l4.644,4.644c0.885,0.887,0.885,2.323,0,3.209C150.388,333.807,149.807,334.028,149.227,334.028z"
		/>
	<path fill="#333333" d="M176.87,361.67c-0.581,0-1.162-0.221-1.605-0.664l-4.644-4.645c-0.886-0.885-0.886-2.322,0-3.208
		c0.887-0.887,2.323-0.887,3.209,0l4.645,4.645c0.886,0.886,0.886,2.321,0,3.208C178.031,361.449,177.45,361.67,176.87,361.67z"/>
	<path fill="#333333" d="M183.556,345.527h-6.568c-1.253,0-2.269-1.016-2.269-2.27c0-1.252,1.016-2.269,2.269-2.269h6.568
		c1.253,0,2.268,1.017,2.268,2.269C185.825,344.512,184.81,345.527,183.556,345.527z"/>
	<path fill="#333333" d="M172.225,334.028c-0.581,0-1.161-0.222-1.605-0.665c-0.886-0.887-0.886-2.322,0-3.209l4.644-4.644
		c0.886-0.887,2.323-0.887,3.209,0c0.886,0.887,0.886,2.322,0,3.209l-4.645,4.644C173.387,333.807,172.806,334.028,172.225,334.028z
		"/>
	<path fill="#333333" d="M172.735,343.258c0-6.621-5.388-12.008-12.009-12.008c-4.02,0-7.584,1.984-9.764,5.026
		c-2.489-1.406-5.338-2.182-8.306-2.182c-3.907,0-7.717,1.365-10.727,3.848c-2.372,1.956-4.164,4.526-5.181,7.395
		c-1.287-0.148-2.608-0.069-3.882,0.232c-2.934,0.693-5.421,2.489-7.005,5.055c-1.584,2.566-2.073,5.595-1.378,8.528
		c0.588,2.488,2.021,4.723,4.031,6.292c1.979,1.545,4.445,2.396,6.944,2.396h30.367c1.009-0.001,2.021-0.119,3.007-0.352
		c6.829-1.617,11.132-8.363,9.791-15.191C171.142,350.095,172.735,346.858,172.735,343.258z M157.787,363.072
		c-0.645,0.152-1.306,0.23-1.962,0.23h-30.366c-3.138,0-5.836-2.137-6.56-5.195c-0.415-1.755-0.122-3.564,0.824-5.1
		c0.947-1.533,2.435-2.607,4.189-3.022c0.513-0.121,1.039-0.184,1.561-0.184c0.732,0,1.456,0.119,2.152,0.356
		c0.616,0.208,1.292,0.142,1.857-0.181c0.564-0.324,0.962-0.874,1.094-1.512c1.172-5.698,6.253-9.834,12.081-9.834
		c2.301,0,4.504,0.638,6.4,1.789c1.814,1.101,3.346,2.671,4.41,4.6c0.018,0.03,0.035,0.061,0.051,0.093
		c0.408,0.755,1.208,1.215,2.065,1.19c0.086-0.004,0.17-0.005,0.255-0.005c3.028,0,5.73,1.578,7.239,4.05
		c0.46,0.755,0.81,1.593,1.023,2.495c0.148,0.626,0.223,1.253,0.229,1.871C164.369,358.598,161.721,362.142,157.787,363.072z
		 M163.859,344.528c-2.025-1.581-4.491-2.533-7.034-2.729c-0.656-1.013-1.411-1.942-2.248-2.777c1.349-1.952,3.602-3.233,6.15-3.233
		c4.119,0,7.471,3.352,7.471,7.47c0,1.652-0.539,3.181-1.452,4.419C165.966,346.482,164.993,345.414,163.859,344.528z"/>
</g>
<path fill="#333333" d="M483.358,144.755c-0.682-2.874-2.335-5.454-4.658-7.269c-2.024-1.581-4.492-2.533-7.035-2.729
	c-3.098-4.785-8.41-7.706-14.167-7.706c-3.907,0-7.718,1.367-10.727,3.848c-1.024,0.845-1.941,1.806-2.733,2.855
	c-3.648,0.16-7.173,1.507-9.993,3.833c-2.371,1.955-4.164,4.527-5.182,7.394c-1.285-0.146-2.607-0.069-3.882,0.233
	c-2.935,0.694-5.422,2.49-7.006,5.056c-1.582,2.566-2.072,5.594-1.378,8.528c0.589,2.487,2.021,4.721,4.032,6.292
	c1.979,1.545,4.445,2.397,6.944,2.397l0.071,0h30.296c1.008,0,2.02-0.119,3.006-0.353c3.697-0.875,6.653-3.253,8.375-6.334h1.345
	c1.01,0,2.021-0.119,3.007-0.353C480.67,158.79,485.013,151.751,483.358,144.755z M463.588,160.799
	c-1.018,0.908-2.268,1.583-3.686,1.919c-0.645,0.152-1.305,0.23-1.961,0.23h-30.313l-0.053,0.001c-3.139,0-5.836-2.136-6.56-5.196
	c-0.416-1.754-0.123-3.565,0.823-5.099c0.947-1.534,2.434-2.607,4.189-3.023c0.515-0.121,1.039-0.183,1.56-0.183
	c0.482,0,0.961,0.052,1.431,0.155c0.242,0.053,0.484,0.119,0.722,0.201c0.616,0.21,1.293,0.144,1.857-0.18
	c0.564-0.324,0.963-0.874,1.095-1.511c1.172-5.698,6.252-9.834,12.081-9.834c0.573,0,1.141,0.039,1.698,0.116
	c3.86,0.535,7.274,2.872,9.162,6.365c0.408,0.754,1.208,1.215,2.065,1.189c0.086-0.003,0.17-0.004,0.256-0.004
	c3.952,0,7.35,2.691,8.262,6.544c0.304,1.281,0.298,2.565,0.032,3.772C465.86,158.014,464.925,159.607,463.588,160.799z
	 M472.628,156.03c-0.583,0.137-1.179,0.214-1.772,0.227c0.222-1.562,0.16-3.189-0.225-4.815c-0.68-2.873-2.333-5.454-4.657-7.269
	c-2.025-1.581-4.491-2.533-7.034-2.73c-2.201-3.4-5.52-5.857-9.322-6.995c2.159-1.794,4.924-2.858,7.881-2.858
	c4.539,0,8.7,2.483,10.861,6.482c0.407,0.755,1.207,1.216,2.064,1.189c0.085-0.002,0.17-0.004,0.255-0.004
	c3.952,0,7.35,2.691,8.262,6.544C480.02,150.361,477.188,154.95,472.628,156.03z"/>
<g>
	<path fill="#333333" d="M476.994,338.02c-0.68-2.873-2.333-5.454-4.657-7.267c-2.025-1.582-4.49-2.534-7.034-2.732
		c-3.098-4.784-8.411-7.704-14.168-7.704c-3.907,0-7.717,1.366-10.727,3.849c-2.372,1.955-4.164,4.526-5.182,7.394
		c-1.286-0.146-2.608-0.068-3.882,0.233c-2.934,0.694-5.422,2.489-7.005,5.055c-1.583,2.566-2.073,5.595-1.378,8.528
		c0.589,2.487,2.021,4.722,4.031,6.292c1.979,1.546,4.445,2.397,6.944,2.397h0.07h0.917l1.88-4.539h-2.797c-0.006,0-0.012,0-0.018,0
		l-0.053,0.001c-3.139,0-5.836-2.137-6.56-5.196c-0.416-1.754-0.123-3.565,0.824-5.099c0.945-1.534,2.434-2.608,4.188-3.022
		c0.515-0.122,1.039-0.184,1.561-0.184c0.731,0,1.456,0.119,2.153,0.355c0.615,0.209,1.292,0.143,1.856-0.181
		c0.565-0.323,0.964-0.874,1.095-1.511c1.173-5.698,6.254-9.834,12.081-9.834c4.539,0,8.701,2.483,10.861,6.481
		c0.408,0.755,1.209,1.215,2.064,1.189c0.086-0.003,0.17-0.004,0.256-0.004c3.952,0,7.35,2.69,8.262,6.544
		c0.889,3.754-0.873,7.526-4.066,9.345c-0.032,0.083-0.064,0.166-0.098,0.248l-2.179,5.26c0.36-0.055,0.72-0.123,1.075-0.207
		C474.307,352.055,478.65,345.016,476.994,338.02z"/>
	<path fill="#333333" d="M437.588,362.058c-0.289,0-0.584-0.056-0.867-0.174c-1.158-0.479-1.708-1.807-1.229-2.965l5.204-12.563
		c0.479-1.157,1.807-1.707,2.965-1.228c1.157,0.479,1.707,1.807,1.228,2.965l-5.204,12.563
		C439.323,361.529,438.478,362.058,437.588,362.058z"/>
	<path fill="#333333" d="M443.123,369.683c-0.289,0-0.584-0.056-0.867-0.173c-1.158-0.479-1.708-1.808-1.229-2.965l8.363-20.188
		c0.479-1.157,1.807-1.707,2.965-1.228c1.157,0.479,1.707,1.807,1.228,2.965l-8.362,20.188
		C444.858,369.155,444.014,369.683,443.123,369.683z"/>
	<g>
		<path fill="#333333" d="M463.824,350.565l-1.465-0.845l1.465-0.846c0.542-0.314,0.728-1.007,0.414-1.55
			c-0.313-0.543-1.007-0.728-1.549-0.415l-1.464,0.845v-1.672c0-0.626-0.508-1.134-1.135-1.134c-0.626,0-1.135,0.508-1.135,1.134
			v1.672l-1.447-0.836c-0.542-0.313-1.236-0.127-1.55,0.416c-0.314,0.542-0.128,1.236,0.416,1.55l1.447,0.836l-1.447,0.835
			c-0.544,0.313-0.73,1.008-0.416,1.55c0.21,0.364,0.591,0.568,0.983,0.568c0.192,0,0.388-0.05,0.566-0.152l1.447-0.836v1.69
			c0,0.627,0.509,1.135,1.135,1.135c0.627,0,1.135-0.508,1.135-1.135v-1.69l1.464,0.845c0.178,0.103,0.373,0.152,0.565,0.152
			c0.393,0,0.773-0.203,0.983-0.567C464.553,351.572,464.366,350.879,463.824,350.565z"/>
	</g>
	<g>
		<path fill="#333333" d="M459.534,360.623l-1.463-0.845l1.463-0.845c0.543-0.314,0.729-1.008,0.416-1.55
			c-0.315-0.543-1.007-0.729-1.55-0.416l-1.464,0.845v-1.671c0-0.627-0.508-1.135-1.135-1.135c-0.626,0-1.134,0.508-1.134,1.135
			v1.671l-1.449-0.835c-0.542-0.313-1.235-0.128-1.55,0.415c-0.313,0.542-0.127,1.236,0.416,1.55l1.447,0.836l-1.447,0.836
			c-0.543,0.313-0.729,1.007-0.416,1.55c0.211,0.364,0.593,0.567,0.984,0.567c0.192,0,0.388-0.049,0.565-0.152l1.449-0.836v1.69
			c0,0.626,0.508,1.134,1.134,1.134c0.627,0,1.135-0.508,1.135-1.134v-1.69l1.464,0.846c0.179,0.103,0.373,0.151,0.565,0.151
			c0.392,0,0.773-0.203,0.984-0.567C460.263,361.631,460.077,360.936,459.534,360.623z"/>
	</g>
</g>
<g>
	<g>
		<path fill="#333333" d="M360.566,363.906l-1.463-0.846l1.464-0.845c0.542-0.313,0.728-1.007,0.415-1.55
			c-0.313-0.543-1.007-0.728-1.55-0.415l-1.463,0.845v-1.672c0-0.626-0.509-1.135-1.135-1.135c-0.627,0-1.135,0.509-1.135,1.135
			v1.672l-1.448-0.836c-0.542-0.314-1.236-0.127-1.55,0.416c-0.314,0.542-0.127,1.236,0.415,1.549l1.448,0.836l-1.448,0.836
			c-0.542,0.313-0.729,1.008-0.415,1.55c0.211,0.364,0.592,0.567,0.983,0.567c0.193,0,0.388-0.049,0.566-0.151l1.448-0.836v1.689
			c0,0.627,0.508,1.135,1.135,1.135c0.626,0,1.135-0.508,1.135-1.135v-1.689l1.463,0.845c0.179,0.104,0.373,0.152,0.566,0.152
			c0.393,0,0.773-0.203,0.983-0.567C361.295,364.913,361.109,364.22,360.566,363.906z"/>
	</g>
	<g>
		<path fill="#333333" d="M353.726,354.463l-1.464-0.845l1.464-0.846c0.543-0.313,0.728-1.007,0.415-1.549
			c-0.313-0.544-1.008-0.729-1.55-0.416l-1.464,0.846v-1.672c0-0.627-0.508-1.135-1.134-1.135c-0.628,0-1.136,0.508-1.136,1.135
			v1.671l-1.447-0.835c-0.543-0.314-1.236-0.128-1.55,0.415c-0.313,0.543-0.127,1.236,0.415,1.55l1.448,0.836l-1.448,0.835
			c-0.542,0.314-0.728,1.008-0.415,1.551c0.21,0.363,0.591,0.567,0.983,0.567c0.192,0,0.389-0.05,0.566-0.152l1.447-0.836v1.69
			c0,0.627,0.508,1.135,1.136,1.135c0.626,0,1.134-0.508,1.134-1.135v-1.69l1.464,0.845c0.179,0.104,0.374,0.153,0.566,0.153
			c0.392,0,0.773-0.204,0.983-0.568C354.454,355.47,354.269,354.776,353.726,354.463z"/>
	</g>
	<g>
		<path fill="#333333" d="M346.917,363.906l-1.463-0.846l1.463-0.845c0.543-0.313,0.728-1.007,0.415-1.55
			c-0.312-0.543-1.007-0.728-1.55-0.415l-1.462,0.845v-1.672c0-0.626-0.509-1.135-1.136-1.135c-0.626,0-1.134,0.509-1.134,1.135
			v1.672l-1.448-0.836c-0.542-0.314-1.236-0.127-1.55,0.416c-0.313,0.542-0.128,1.236,0.415,1.549l1.448,0.836l-1.448,0.836
			c-0.543,0.313-0.728,1.008-0.415,1.55c0.21,0.364,0.592,0.567,0.983,0.567c0.192,0,0.388-0.049,0.566-0.151l1.448-0.836v1.689
			c0,0.627,0.508,1.135,1.134,1.135c0.627,0,1.136-0.508,1.136-1.135v-1.689l1.462,0.845c0.18,0.104,0.375,0.152,0.566,0.152
			c0.393,0,0.775-0.203,0.983-0.567C347.645,364.913,347.46,364.22,346.917,363.906z"/>
	</g>
	<path fill="#333333" d="M376.994,339.853c-0.68-2.872-2.333-5.454-4.657-7.268c-2.025-1.581-4.49-2.533-7.034-2.73
		c-3.098-4.785-8.411-7.705-14.168-7.705c-3.907,0-7.717,1.366-10.727,3.848c-2.372,1.956-4.164,4.527-5.182,7.395
		c-1.286-0.147-2.607-0.069-3.882,0.232c-2.934,0.695-5.422,2.49-7.005,5.056c-1.583,2.565-2.073,5.595-1.378,8.528
		c0.589,2.487,2.021,4.722,4.031,6.292c1.979,1.546,4.445,2.397,6.944,2.397h0.07h3.564c0.005,0,0.008,0,0.013,0
		c1.253,0,2.27-1.017,2.27-2.27c0-1.253-1.017-2.269-2.27-2.269v-0.001h-3.576c-0.006,0-0.012,0-0.018,0l-0.053,0.001
		c-3.139,0-5.836-2.137-6.56-5.196c-0.416-1.754-0.123-3.565,0.824-5.099c0.945-1.534,2.434-2.607,4.188-3.023
		c0.515-0.121,1.039-0.183,1.56-0.183c0.732,0,1.456,0.119,2.153,0.355c0.615,0.209,1.292,0.144,1.855-0.181
		c0.565-0.323,0.964-0.874,1.095-1.511c1.173-5.698,6.254-9.834,12.081-9.834c4.539,0,8.701,2.483,10.861,6.481
		c0.408,0.755,1.209,1.216,2.064,1.189c0.086-0.003,0.17-0.004,0.256-0.004c3.952,0,7.35,2.69,8.262,6.544
		c1.08,4.561-1.753,9.15-6.313,10.229c-0.645,0.152-1.305,0.229-1.961,0.229h-1.885v0.001c-1.252,0-2.269,1.016-2.269,2.269
		c0,1.253,1.017,2.27,2.269,2.27c0.004,0,0.009,0,0.013,0h1.873c1.009-0.001,2.02-0.119,3.006-0.353
		C374.306,353.888,378.65,346.849,376.994,339.853z"/>
</g>
<g>
	<path fill="#333333" d="M567.31,255.793c-0.986,0.233-1.997,0.352-3.006,0.352h-5.17c-1.253,0-2.27-1.016-2.27-2.268
		c0-1.254,1.017-2.27,2.27-2.27h5.169c0.656-0.001,1.317-0.078,1.962-0.231c4.56-1.08,7.393-5.668,6.313-10.229
		c-0.912-3.853-4.309-6.545-8.262-6.545c-0.085,0-0.17,0.002-0.255,0.004c-0.857,0.025-1.657-0.435-2.065-1.189
		c-2.161-3.997-6.321-6.481-10.86-6.481c-5.828,0-10.909,4.135-12.082,9.834c-0.131,0.637-0.529,1.187-1.094,1.511
		c-0.565,0.324-1.241,0.39-1.857,0.181c-0.697-0.236-1.421-0.355-2.152-0.355c-0.521,0-1.047,0.061-1.561,0.183
		c-1.755,0.415-3.242,1.488-4.188,3.022c-0.947,1.534-1.239,3.346-0.824,5.099c0.724,3.059,3.421,5.196,6.56,5.196h7.6
		c1.253,0,2.269,1.016,2.269,2.27c0,1.253-1.017,2.268-2.269,2.268h-7.6c-2.5,0-4.965-0.851-6.944-2.396
		c-2.011-1.571-3.442-3.805-4.032-6.292c-0.694-2.934-0.205-5.962,1.379-8.528c1.583-2.566,4.071-4.361,7.005-5.056
		c1.275-0.302,2.596-0.379,3.883-0.232c1.018-2.868,2.809-5.44,5.182-7.395c3.01-2.482,6.819-3.849,10.727-3.849
		c5.758,0,11.07,2.921,14.168,7.705c2.542,0.197,5.008,1.149,7.034,2.73c2.322,1.815,3.977,4.396,4.657,7.269
		C578.65,247.098,574.307,254.136,567.31,255.793z"/>
	<polygon fill="#333333" points="550.935,255.559 554.142,255.559 547.29,272.1 548.93,260.182 545.881,260.182 548.283,246.97 
		554.521,246.97 	"/>
</g>
<g>
	<g>
		<path fill="#333333" d="M563.384,326.8c-1.254,0-2.27-1.017-2.27-2.27v-6.567c0-1.254,1.016-2.27,2.27-2.27
			c1.253,0,2.268,1.016,2.268,2.27v6.567C565.652,325.783,564.637,326.8,563.384,326.8z"/>
		<path fill="#333333" d="M551.884,331.563c-0.58,0-1.161-0.222-1.604-0.664l-4.644-4.645c-0.886-0.886-0.886-2.323,0-3.209
			c0.886-0.886,2.323-0.886,3.209,0l4.644,4.644c0.886,0.887,0.886,2.323,0,3.21C553.046,331.341,552.465,331.563,551.884,331.563z"
			/>
		<path fill="#333333" d="M579.526,359.205c-0.58,0-1.161-0.222-1.604-0.664l-4.644-4.644c-0.886-0.886-0.886-2.322,0-3.209
			c0.886-0.886,2.322-0.886,3.209,0l4.644,4.645c0.886,0.886,0.886,2.322,0,3.209C580.688,358.983,580.107,359.205,579.526,359.205z
			"/>
		<path fill="#333333" d="M586.214,343.061h-6.568c-1.253,0-2.268-1.016-2.268-2.268c0-1.254,1.016-2.27,2.268-2.27h6.568
			c1.253,0,2.268,1.016,2.268,2.27C588.481,342.046,587.467,343.061,586.214,343.061z"/>
		<path fill="#333333" d="M574.883,331.563c-0.581,0-1.162-0.222-1.605-0.664c-0.886-0.887-0.886-2.323,0-3.21l4.644-4.644
			c0.887-0.886,2.323-0.886,3.209,0c0.886,0.886,0.886,2.323,0,3.209l-4.644,4.645C576.044,331.341,575.463,331.563,574.883,331.563
			z"/>
	</g>
	<g>
		<g>
			<path fill="#333333" d="M554.746,373.385l-1.464-0.845l1.464-0.846c0.543-0.313,0.729-1.007,0.415-1.549
				c-0.313-0.543-1.007-0.729-1.55-0.416l-1.463,0.846v-1.672c0-0.627-0.508-1.135-1.136-1.135c-0.626,0-1.134,0.508-1.134,1.135
				v1.672l-1.448-0.836c-0.542-0.313-1.236-0.128-1.549,0.415c-0.314,0.543-0.128,1.237,0.414,1.55l1.448,0.836l-1.448,0.835
				c-0.542,0.315-0.729,1.008-0.414,1.551c0.21,0.363,0.591,0.567,0.982,0.567c0.192,0,0.388-0.049,0.566-0.152l1.448-0.836v1.69
				c0,0.627,0.508,1.134,1.134,1.134c0.628,0,1.136-0.507,1.136-1.134v-1.69l1.463,0.845c0.179,0.103,0.374,0.152,0.566,0.152
				c0.393,0,0.773-0.203,0.983-0.567C555.475,374.393,555.288,373.698,554.746,373.385z"/>
		</g>
		<g>
			<path fill="#333333" d="M547.905,363.942l-1.464-0.845l1.464-0.846c0.543-0.314,0.729-1.007,0.415-1.55
				c-0.313-0.543-1.007-0.728-1.55-0.415l-1.464,0.845v-1.672c0-0.626-0.508-1.134-1.134-1.134c-0.628,0-1.136,0.508-1.136,1.134
				v1.672l-1.447-0.836c-0.543-0.314-1.236-0.127-1.55,0.415c-0.313,0.543-0.127,1.237,0.415,1.551l1.448,0.836l-1.448,0.835
				c-0.542,0.314-0.729,1.008-0.415,1.55c0.211,0.364,0.592,0.567,0.984,0.567c0.192,0,0.388-0.049,0.565-0.151l1.447-0.836v1.69
				c0,0.626,0.508,1.134,1.136,1.134c0.626,0,1.134-0.508,1.134-1.134v-1.69l1.464,0.845c0.179,0.104,0.374,0.152,0.566,0.152
				c0.392,0,0.773-0.203,0.983-0.567C548.634,364.949,548.448,364.255,547.905,363.942z"/>
		</g>
		<g>
			<path fill="#333333" d="M541.097,373.385l-1.464-0.845l1.464-0.846c0.543-0.313,0.727-1.007,0.415-1.549
				c-0.313-0.543-1.008-0.729-1.551-0.416l-1.463,0.846v-1.672c0-0.627-0.508-1.135-1.135-1.135c-0.627,0-1.134,0.508-1.134,1.135
				v1.672l-1.448-0.836c-0.542-0.313-1.236-0.128-1.55,0.415c-0.313,0.543-0.128,1.237,0.416,1.55l1.447,0.836l-1.447,0.835
				c-0.544,0.315-0.729,1.008-0.416,1.551c0.21,0.363,0.592,0.567,0.984,0.567c0.191,0,0.387-0.049,0.566-0.152l1.448-0.836v1.69
				c0,0.627,0.507,1.134,1.134,1.134c0.627,0,1.135-0.507,1.135-1.134v-1.69l1.463,0.845c0.18,0.103,0.375,0.152,0.566,0.152
				c0.393,0,0.774-0.203,0.983-0.567C541.824,374.393,541.64,373.698,541.097,373.385z"/>
		</g>
		<path fill="#333333" d="M575.392,340.793c0-6.622-5.387-12.009-12.008-12.009c-4.02,0-7.585,1.984-9.765,5.026
			c-2.488-1.407-5.338-2.183-8.305-2.183c-3.908,0-7.718,1.367-10.728,3.849c-2.371,1.955-4.164,4.527-5.182,7.395
			c-1.286-0.147-2.607-0.069-3.882,0.232c-2.935,0.694-5.422,2.489-7.006,5.056c-1.583,2.565-2.072,5.594-1.378,8.528
			c0.589,2.486,2.021,4.721,4.031,6.292c1.979,1.545,4.446,2.396,6.945,2.396h3.646c1.253,0,2.269-1.016,2.269-2.269
			c0-1.254-1.017-2.27-2.269-2.27h-3.646c-3.139,0-5.836-2.137-6.561-5.195c-0.415-1.754-0.123-3.565,0.824-5.1
			c0.947-1.534,2.434-2.607,4.188-3.022c0.515-0.122,1.039-0.183,1.561-0.183c0.732,0,1.457,0.119,2.152,0.355
			c0.616,0.209,1.293,0.143,1.857-0.181c0.564-0.324,0.963-0.874,1.095-1.512c1.172-5.698,6.252-9.833,12.081-9.833
			c2.3,0,4.504,0.638,6.398,1.788c1.816,1.101,3.348,2.671,4.411,4.601c0.018,0.031,0.034,0.061,0.051,0.092
			c0.408,0.755,1.208,1.216,2.064,1.189c0.086-0.002,0.17-0.004,0.256-0.004c3.027,0,5.731,1.58,7.239,4.052
			c0.46,0.755,0.81,1.592,1.022,2.492c0.148,0.627,0.223,1.254,0.229,1.872c0.04,3.884-2.608,7.426-6.542,8.357
			c-0.645,0.153-1.305,0.23-1.961,0.23h-1.884c-0.627,0-1.193,0.255-1.604,0.665c-0.411,0.41-0.665,0.977-0.665,1.604
			c0,1.253,1.017,2.269,2.269,2.269h1.885c1.008,0,2.019-0.119,3.006-0.352c6.829-1.617,11.132-8.363,9.792-15.192
			C573.799,347.629,575.392,344.394,575.392,340.793z M566.516,342.064c-2.025-1.581-4.491-2.533-7.034-2.73
			c-0.655-1.013-1.409-1.941-2.247-2.776c1.347-1.952,3.602-3.234,6.149-3.234c4.119,0,7.47,3.351,7.47,7.471
			c0,1.652-0.539,3.181-1.452,4.419C568.625,344.016,567.649,342.949,566.516,342.064z"/>
	</g>
</g>
<path fill="#333333" d="M376.995,145.83c-0.681-2.873-2.334-5.455-4.656-7.269c-2.025-1.581-4.492-2.533-7.035-2.73
	c-3.098-4.784-8.41-7.704-14.167-7.704c-3.908,0-7.718,1.366-10.728,3.848c-2.372,1.955-4.163,4.527-5.182,7.395
	c-1.287-0.147-2.607-0.069-3.883,0.232c-2.933,0.694-5.421,2.489-7.005,5.056c-1.583,2.565-2.072,5.594-1.378,8.527
	c0.589,2.487,2.02,4.723,4.031,6.292c1.979,1.546,4.445,2.396,6.944,2.396h0.071h3.563c0.004,0,20.171,0,24.848,0l0,0
	c0.001,0,0.001,0,0.001,0c0.612,0,0.96,0,0.96,0l0,0h0.924c1.009,0,2.02-0.119,3.007-0.353
	C374.306,159.864,378.651,152.825,376.995,145.83z M366.266,157.104c-0.645,0.152-1.306,0.229-1.963,0.23h-1.884l0,0h-24.836h-3.575
	c-0.006,0-0.012,0-0.019,0h-0.053c-3.138,0-5.836-2.136-6.559-5.195c-0.416-1.755-0.123-3.566,0.823-5.1
	c0.947-1.533,2.435-2.607,4.188-3.022c0.514-0.121,1.039-0.184,1.561-0.184c0.731,0,1.456,0.12,2.152,0.355
	c0.616,0.209,1.293,0.144,1.857-0.181c0.565-0.323,0.962-0.873,1.093-1.511c1.173-5.697,6.254-9.834,12.083-9.834
	c4.537,0,8.699,2.484,10.859,6.481c0.408,0.755,1.209,1.216,2.066,1.189c0.085-0.003,0.17-0.004,0.255-0.004
	c3.952,0,7.35,2.691,8.262,6.544C373.659,151.435,370.826,156.024,366.266,157.104z"/>
<g>
	<path fill="#333333" d="M362.981,427.404c-1.253,0-2.27-1.015-2.27-2.269v-6.567c0-1.254,1.017-2.27,2.27-2.27
		c1.253,0,2.269,1.016,2.269,2.27v6.567C365.25,426.39,364.234,427.404,362.981,427.404z"/>
	<path fill="#333333" d="M351.481,432.168c-0.581,0-1.161-0.222-1.604-0.665l-4.644-4.643c-0.886-0.887-0.886-2.322,0-3.209
		c0.886-0.887,2.322-0.886,3.209,0l4.643,4.644c0.886,0.887,0.886,2.323,0,3.209C352.643,431.946,352.062,432.168,351.481,432.168z"
		/>
	<path fill="#333333" d="M379.124,459.81c-0.581,0-1.161-0.221-1.604-0.664l-4.643-4.645c-0.887-0.885-0.887-2.322,0-3.208
		c0.886-0.887,2.322-0.887,3.208,0l4.645,4.645c0.886,0.886,0.886,2.321,0,3.208C380.286,459.589,379.705,459.81,379.124,459.81z"/>
	<path fill="#333333" d="M385.811,443.667h-6.567c-1.254,0-2.269-1.016-2.269-2.27c0-1.252,1.015-2.269,2.269-2.269h6.567
		c1.253,0,2.269,1.017,2.269,2.269C388.08,442.651,387.064,443.667,385.811,443.667z"/>
	<path fill="#333333" d="M374.48,432.168c-0.581,0-1.161-0.222-1.604-0.665c-0.887-0.887-0.887-2.322,0-3.209l4.643-4.644
		c0.886-0.887,2.323-0.887,3.21,0c0.886,0.887,0.886,2.322,0,3.209l-4.645,4.643C375.642,431.946,375.061,432.168,374.48,432.168z"
		/>
	<g>
		<path fill="#333333" d="M336.072,473.974c-0.29,0-0.583-0.055-0.868-0.172c-1.158-0.479-1.708-1.808-1.228-2.966l5.204-12.563
			c0.479-1.156,1.807-1.707,2.964-1.228c1.159,0.479,1.708,1.807,1.229,2.964l-5.203,12.563
			C337.807,473.447,336.962,473.974,336.072,473.974z"/>
		<path fill="#333333" d="M374.99,441.397c0-6.621-5.388-12.008-12.009-12.008c-4.02,0-7.585,1.984-9.764,5.026
			c-2.489-1.406-5.338-2.182-8.305-2.182c-3.907,0-7.717,1.365-10.727,3.848c-2.373,1.956-4.164,4.526-5.182,7.395
			c-1.287-0.147-2.607-0.069-3.882,0.232c-2.934,0.693-5.422,2.489-7.005,5.055c-1.584,2.565-2.073,5.595-1.379,8.528
			c0.589,2.488,2.021,4.723,4.032,6.292c1.979,1.545,4.444,2.396,6.944,2.396h5.695l1.88-4.538h-7.575
			c-3.139,0-5.835-2.137-6.56-5.195c-0.415-1.755-0.122-3.565,0.824-5.1c0.947-1.533,2.434-2.607,4.189-3.022
			c0.514-0.121,1.039-0.184,1.561-0.184c0.732,0,1.456,0.119,2.152,0.357c0.616,0.208,1.292,0.142,1.857-0.181
			c0.564-0.324,0.962-0.874,1.094-1.512c1.172-5.698,6.253-9.834,12.082-9.834c2.301,0,4.504,0.638,6.399,1.789
			c1.815,1.101,3.347,2.671,4.41,4.6c0.018,0.03,0.035,0.062,0.051,0.093c0.408,0.755,1.208,1.216,2.065,1.19
			c0.085-0.004,0.17-0.005,0.255-0.005c3.028,0,5.73,1.578,7.239,4.05c0.46,0.755,0.81,1.593,1.023,2.495
			c0.148,0.626,0.224,1.253,0.229,1.871c0.04,3.883-2.608,7.427-6.542,8.357c-0.645,0.152-1.305,0.23-1.962,0.23h-4.027l-1.88,4.538
			h5.908c1.009-0.001,2.02-0.119,3.006-0.353c6.83-1.617,11.132-8.363,9.792-15.191C373.397,448.234,374.99,444.998,374.99,441.397z
			 M359.08,439.939c-0.656-1.013-1.411-1.942-2.248-2.777c1.349-1.952,3.602-3.233,6.15-3.233c4.119,0,7.471,3.352,7.471,7.47
			c0,1.652-0.54,3.181-1.451,4.419c-0.78-1.194-1.753-2.263-2.887-3.148C364.088,441.087,361.622,440.135,359.08,439.939z"/>
		<path fill="#333333" d="M341.607,481.601c-0.29,0-0.584-0.057-0.868-0.174c-1.157-0.479-1.708-1.807-1.228-2.965l8.362-20.189
			c0.48-1.156,1.807-1.707,2.965-1.228c1.158,0.479,1.707,1.807,1.228,2.964l-8.362,20.189
			C343.342,481.072,342.498,481.601,341.607,481.601z"/>
	</g>
</g>
<g>
	<path fill="#333333" d="M142.296,264.248c-0.29,0-0.583-0.055-0.868-0.172c-1.158-0.479-1.707-1.808-1.228-2.966l0.572-1.381
		c0.48-1.158,1.807-1.707,2.965-1.229c1.158,0.48,1.708,1.808,1.228,2.965l-0.572,1.381
		C144.031,263.721,143.186,264.248,142.296,264.248z M145.184,257.277c-0.289,0-0.583-0.056-0.867-0.174
		c-1.158-0.479-1.708-1.807-1.229-2.966l2.316-5.59c0.48-1.156,1.807-1.707,2.965-1.228c1.157,0.48,1.708,1.807,1.228,2.964
		l-2.316,5.592C146.919,256.749,146.074,257.277,145.184,257.277z"/>
	<path fill="#333333" d="M149.246,268.457c-0.29,0-0.583-0.055-0.867-0.174c-1.158-0.478-1.707-1.806-1.229-2.964l2.316-5.59
		c0.48-1.158,1.807-1.707,2.965-1.229c1.158,0.48,1.708,1.808,1.228,2.965l-2.315,5.59
		C150.981,267.929,150.137,268.457,149.246,268.457z M153.877,257.277c-0.29,0-0.583-0.056-0.868-0.174
		c-1.157-0.479-1.708-1.807-1.228-2.966l2.316-5.59c0.479-1.156,1.807-1.707,2.965-1.228c1.158,0.48,1.708,1.807,1.228,2.964
		l-2.316,5.592C155.613,256.749,154.768,257.277,153.877,257.277z"/>
	<path fill="#333333" d="M176.995,240.211c-0.68-2.873-2.334-5.455-4.657-7.27c-2.025-1.581-4.491-2.533-7.034-2.729
		c-3.098-4.784-8.411-7.705-14.167-7.705c-3.908,0-7.717,1.366-10.727,3.849c-2.371,1.956-4.164,4.526-5.181,7.395
		c-1.286-0.148-2.607-0.069-3.882,0.232c-2.934,0.694-5.421,2.489-7.005,5.055c-1.584,2.566-2.073,5.595-1.378,8.528
		c0.588,2.487,2.021,4.723,4.031,6.292c1.979,1.546,4.445,2.396,6.944,2.396h0.071h5.624l1.88-4.538h-7.504
		c-0.006,0-0.012,0-0.018,0h-0.053c-3.138,0-5.835-2.137-6.56-5.195c-0.415-1.755-0.122-3.566,0.824-5.1
		c0.946-1.533,2.434-2.607,4.188-3.023c0.514-0.121,1.039-0.184,1.561-0.184c0.732,0,1.456,0.12,2.152,0.356
		c0.616,0.208,1.292,0.142,1.857-0.181c0.565-0.324,0.963-0.874,1.095-1.512c1.172-5.698,6.253-9.834,12.081-9.834
		c4.538,0,8.7,2.483,10.86,6.482c0.408,0.755,1.208,1.216,2.065,1.189c0.085-0.003,0.17-0.004,0.255-0.004
		c3.953,0,7.35,2.691,8.262,6.543c1.079,4.561-1.753,9.15-6.313,10.23c-0.645,0.152-1.306,0.23-1.962,0.23h-4.027l-1.879,4.538
		h5.907c1.009,0,2.02-0.119,3.007-0.352C174.307,254.246,178.65,247.206,176.995,240.211z"/>
</g>
<g>
	<g>
		<path fill="#333333" d="M162.996,427.425c-1.254,0-2.27-1.015-2.27-2.268v-6.567c0-1.253,1.016-2.27,2.27-2.27
			c1.253,0,2.269,1.017,2.269,2.27v6.567C165.265,426.41,164.249,427.425,162.996,427.425z"/>
		<path fill="#333333" d="M151.496,432.189c-0.58,0-1.161-0.222-1.604-0.665l-4.644-4.643c-0.886-0.887-0.886-2.322,0-3.209
			c0.886-0.887,2.323-0.886,3.209,0l4.644,4.644c0.886,0.887,0.886,2.323,0,3.209C152.658,431.967,152.077,432.189,151.496,432.189z
			"/>
		<path fill="#333333" d="M179.139,459.83c-0.58,0-1.161-0.221-1.605-0.664l-4.644-4.644c-0.886-0.885-0.886-2.322,0-3.208
			c0.886-0.887,2.322-0.887,3.209,0l4.644,4.645c0.886,0.886,0.886,2.321,0,3.208C180.3,459.609,179.72,459.83,179.139,459.83z"/>
		<path fill="#333333" d="M185.826,443.688h-6.568c-1.253,0-2.269-1.016-2.269-2.27c0-1.252,1.016-2.269,2.269-2.269h6.568
			c1.253,0,2.268,1.017,2.268,2.269C188.094,442.672,187.079,443.688,185.826,443.688z"/>
		<path fill="#333333" d="M174.495,432.189c-0.581,0-1.162-0.222-1.605-0.665c-0.886-0.887-0.886-2.322,0-3.209l4.644-4.644
			c0.887-0.887,2.323-0.887,3.209,0c0.886,0.887,0.886,2.322,0,3.209l-4.644,4.643C175.656,431.967,175.075,432.189,174.495,432.189
			z"/>
	</g>
	<g>
		<path fill="#333333" d="M136.087,473.994c-0.289,0-0.584-0.055-0.868-0.172c-1.157-0.479-1.707-1.808-1.228-2.966l0.572-1.381
			c0.48-1.158,1.807-1.707,2.965-1.228c1.157,0.479,1.707,1.808,1.228,2.965l-0.572,1.381
			C137.821,473.468,136.977,473.994,136.087,473.994z M138.975,467.023c-0.289,0-0.584-0.056-0.868-0.174
			c-1.156-0.48-1.707-1.807-1.228-2.966l2.315-5.59c0.48-1.156,1.808-1.707,2.965-1.228c1.158,0.479,1.707,1.807,1.229,2.964
			l-2.316,5.592C140.71,466.495,139.865,467.023,138.975,467.023z"/>
		<path fill="#333333" d="M143.037,478.203c-0.289,0-0.584-0.055-0.867-0.174c-1.158-0.478-1.708-1.806-1.229-2.964l2.316-5.59
			c0.479-1.158,1.807-1.707,2.964-1.228c1.158,0.479,1.708,1.808,1.229,2.965l-2.316,5.59
			C144.772,477.676,143.928,478.203,143.037,478.203z M147.668,467.023c-0.288,0-0.583-0.056-0.867-0.174
			c-1.157-0.48-1.707-1.807-1.229-2.966l2.316-5.59c0.479-1.156,1.807-1.707,2.965-1.228s1.707,1.807,1.228,2.964l-2.316,5.592
			C149.403,466.495,148.559,467.023,147.668,467.023z"/>
		<path fill="#333333" d="M175.004,441.418c0-6.621-5.387-12.008-12.008-12.008c-4.02,0-7.585,1.984-9.765,5.026
			c-2.488-1.406-5.338-2.182-8.305-2.182c-3.908,0-7.718,1.365-10.728,3.848c-2.371,1.956-4.164,4.526-5.182,7.395
			c-1.285-0.147-2.606-0.069-3.882,0.232c-2.935,0.693-5.421,2.489-7.005,5.055c-1.583,2.565-2.072,5.595-1.378,8.528
			c0.589,2.488,2.021,4.723,4.032,6.292c1.979,1.545,4.446,2.397,6.945,2.397h5.694l1.881-4.538h-7.575
			c-3.139,0-5.836-2.137-6.56-5.195c-0.416-1.755-0.123-3.565,0.824-5.1c0.947-1.533,2.434-2.608,4.188-3.022
			c0.515-0.121,1.039-0.184,1.561-0.184c0.732,0,1.457,0.119,2.152,0.356c0.616,0.208,1.293,0.142,1.857-0.181
			c0.564-0.324,0.963-0.874,1.095-1.512c1.172-5.698,6.252-9.834,12.081-9.834c2.3,0,4.504,0.638,6.398,1.789
			c1.816,1.101,3.348,2.671,4.41,4.6c0.018,0.03,0.035,0.061,0.052,0.093c0.408,0.755,1.207,1.216,2.064,1.19
			c0.086-0.004,0.17-0.005,0.256-0.005c3.027,0,5.73,1.58,7.237,4.051c0.462,0.754,0.812,1.592,1.024,2.494
			c0.148,0.626,0.223,1.253,0.229,1.871c0.04,3.883-2.608,7.427-6.542,8.357c-0.645,0.152-1.305,0.23-1.961,0.23h-4.027
			l-1.881,4.538h5.909c1.008-0.001,2.019-0.119,3.006-0.353c6.829-1.617,11.132-8.363,9.792-15.191
			C173.411,448.255,175.004,445.019,175.004,441.418z M166.128,442.689c-2.025-1.581-4.491-2.533-7.034-2.729
			c-0.655-1.013-1.41-1.942-2.248-2.777c1.348-1.952,3.602-3.233,6.15-3.233c4.119,0,7.47,3.352,7.47,7.47
			c0,1.652-0.539,3.181-1.452,4.419C168.237,444.643,167.262,443.574,166.128,442.689z"/>
	</g>
</g>
<g>
	<g>
		<path fill="#333333" d="M564.539,428.171c-1.254,0-2.269-1.015-2.269-2.269v-6.567c0-1.253,1.015-2.27,2.269-2.27
			c1.253,0,2.27,1.017,2.27,2.27v6.567C566.809,427.156,565.792,428.171,564.539,428.171z"/>
		<path fill="#333333" d="M553.04,432.935c-0.581,0-1.161-0.222-1.604-0.665l-4.644-4.643c-0.887-0.887-0.887-2.322,0-3.209
			c0.887-0.887,2.323-0.886,3.209,0l4.644,4.643c0.886,0.887,0.886,2.323,0,3.209C554.201,432.713,553.621,432.935,553.04,432.935z"
			/>
		<path fill="#333333" d="M580.683,460.576c-0.581,0-1.162-0.221-1.604-0.664l-4.644-4.645c-0.886-0.885-0.886-2.322,0-3.208
			c0.887-0.887,2.323-0.887,3.209,0l4.645,4.645c0.886,0.886,0.886,2.321,0,3.208C581.844,460.355,581.263,460.576,580.683,460.576z
			"/>
		<path fill="#333333" d="M587.369,444.434h-6.567c-1.254,0-2.27-1.016-2.27-2.27c0-1.252,1.016-2.269,2.27-2.269h6.567
			c1.254,0,2.27,1.017,2.27,2.269C589.639,443.418,588.623,444.434,587.369,444.434z"/>
		<path fill="#333333" d="M576.038,432.935c-0.58,0-1.161-0.222-1.604-0.665c-0.886-0.887-0.886-2.322,0-3.209l4.644-4.643
			c0.886-0.887,2.322-0.887,3.209,0c0.886,0.887,0.886,2.322,0,3.209l-4.645,4.643C577.2,432.713,576.619,432.935,576.038,432.935z"
			/>
	</g>
	<g>
		<path fill="#333333" d="M558.982,474.305H521.05c-1.253,0-2.27-1.017-2.27-2.27c0-1.253,1.017-2.269,2.27-2.269h37.933
			c1.253,0,2.269,1.016,2.269,2.269C561.251,473.288,560.235,474.305,558.982,474.305z"/>
		<path fill="#333333" d="M549.685,466.747h-37.933c-1.252,0-2.268-1.016-2.268-2.27c0-1.253,1.016-2.268,2.268-2.268h37.933
			c1.254,0,2.27,1.016,2.27,2.268C551.955,465.731,550.94,466.747,549.685,466.747z"/>
		<path fill="#333333" d="M554.444,459.19h-37.933c-1.254,0-2.269-1.015-2.269-2.269s1.016-2.269,2.269-2.269h37.933
			c1.253,0,2.27,1.015,2.27,2.269S555.697,459.19,554.444,459.19z"/>
		<path fill="#333333" d="M576.548,442.164c0-6.621-5.387-12.008-12.009-12.008c-4.074,0-7.68,2.038-9.852,5.149
			c-2.54-1.484-5.467-2.305-8.519-2.305c-3.908,0-7.718,1.365-10.728,3.848c-2.372,1.956-4.163,4.526-5.182,7.395
			c-1.287-0.148-2.607-0.069-3.883,0.232c-2.933,0.693-5.421,2.489-7.005,5.055c-0.534,0.867-0.945,1.787-1.226,2.739h4.884
			c0.065-0.119,0.132-0.238,0.204-0.355c0.947-1.533,2.435-2.607,4.188-3.022c0.514-0.121,1.039-0.184,1.56-0.184
			c0.732,0,1.456,0.119,2.152,0.357c0.616,0.208,1.293,0.142,1.856-0.181c0.565-0.324,0.963-0.874,1.095-1.512
			c1.172-5.698,6.253-9.834,12.082-9.834c2.408,0,4.71,0.699,6.662,1.953c1.729,1.109,3.184,2.652,4.197,4.528
			c0.119,0.22,0.273,0.416,0.449,0.579c0.431,0.403,1.01,0.629,1.616,0.611c0.085-0.004,0.17-0.005,0.256-0.005
			c3.06,0,5.788,1.613,7.286,4.13c0.437,0.733,0.77,1.545,0.976,2.415c0.156,0.657,0.229,1.315,0.228,1.962
			c-0.002,3.847-2.639,7.343-6.541,8.267c-0.646,0.152-1.306,0.231-1.962,0.231h-5.591c0.377,0.672,0.592,1.445,0.592,2.268
			c0,0.824-0.215,1.599-0.59,2.27h5.589c1.009-0.001,2.021-0.119,3.008-0.353c6.754-1.6,11.037-8.218,9.832-14.97
			C574.845,449.221,576.548,445.888,576.548,442.164z M567.369,443.435c-2.024-1.581-4.491-2.533-7.034-2.729
			c-0.608-0.94-1.302-1.807-2.068-2.595c1.333-2.054,3.646-3.416,6.272-3.416c4.119,0,7.471,3.352,7.471,7.47
			c0,1.75-0.605,3.361-1.616,4.636C569.593,445.516,568.571,444.374,567.369,443.435z"/>
	</g>
</g>
<path fill="#333333" d="M258.203,151.465c-3.08-1.276-5.479-3.674-6.754-6.755c-1.275-3.08-1.276-6.471,0-9.552
	c0.366-0.883,0.824-1.71,1.365-2.471c1.043-1.473,2.396-2.696,3.981-3.596c-1.882-0.715-3.892-1.099-5.933-1.114
	c-2.209-0.016-4.457,0.401-6.626,1.3c-8.683,3.597-12.808,13.552-9.211,22.235c3.598,8.684,13.553,12.807,22.236,9.21
	c2.169-0.898,4.053-2.193,5.604-3.766c1.433-1.454,2.582-3.146,3.407-4.983c-1.757,0.485-3.579,0.576-5.358,0.273
	C259.995,152.091,259.086,151.831,258.203,151.465z M255.525,156.53c-3.079,1.275-6.471,1.275-9.552,0.001
	c-3.079-1.277-5.478-3.675-6.754-6.755c-1.275-3.08-1.275-6.471-0.001-9.551c1.277-3.08,3.676-5.48,6.755-6.755
	c0.487-0.202,0.982-0.371,1.482-0.51c-1.854,4.126-2.067,8.979-0.2,13.487c1.868,4.51,5.451,7.789,9.679,9.395
	C256.482,156.098,256.012,156.328,255.525,156.53z"/>
<g>
	<g>
		<path fill="#333333" d="M150,131.006c-1.253,0-2.269-1.016-2.269-2.27v-6.567c0-1.253,1.016-2.27,2.269-2.27
			c1.253,0,2.27,1.017,2.27,2.27v6.567C152.27,129.991,151.253,131.006,150,131.006z"/>
		<path fill="#333333" d="M133.738,147.269h-6.568c-1.253,0-2.269-1.017-2.269-2.27s1.016-2.27,2.269-2.27h6.568
			c1.253,0,2.269,1.017,2.269,2.27S134.991,147.269,133.738,147.269z"/>
		<path fill="#333333" d="M149.999,170.099c-1.253,0-2.268-1.017-2.268-2.27v-6.567c0-1.254,1.016-2.27,2.268-2.27
			c1.253,0,2.27,1.016,2.27,2.27v6.567C152.269,169.083,151.253,170.099,149.999,170.099z"/>
		<path fill="#333333" d="M172.83,147.269h-6.567c-1.253,0-2.27-1.017-2.27-2.27s1.016-2.27,2.27-2.27h6.567
			c1.253,0,2.27,1.017,2.27,2.27S174.083,147.269,172.83,147.269z"/>
		<path fill="#333333" d="M150,157.008c-6.622,0-12.009-5.387-12.009-12.009c0-6.621,5.387-12.009,12.009-12.009
			s12.009,5.388,12.009,12.009C162.009,151.622,156.622,157.008,150,157.008z M150,137.529c-4.119,0-7.47,3.352-7.47,7.471
			c0,4.119,3.351,7.471,7.47,7.471c4.119,0,7.471-3.352,7.471-7.471C157.471,140.88,154.119,137.529,150,137.529z"/>
	</g>
	<path fill="#333333" d="M138.501,135.769c-0.581,0-1.162-0.221-1.605-0.664l-2.322-2.322c-0.886-0.886-0.886-2.322,0-3.209
		c0.886-0.886,2.323-0.886,3.209,0l2.322,2.322c0.887,0.886,0.887,2.323,0,3.209C139.662,135.548,139.081,135.769,138.501,135.769z"
		/>
	<path fill="#333333" d="M136.179,161.09c-0.581,0-1.161-0.222-1.604-0.665c-0.886-0.886-0.886-2.323,0-3.209l2.322-2.321
		c0.886-0.887,2.323-0.887,3.209,0c0.886,0.886,0.886,2.322,0,3.209l-2.322,2.321C137.34,160.869,136.76,161.09,136.179,161.09z"/>
	<path fill="#333333" d="M163.821,161.09c-0.58,0-1.162-0.222-1.604-0.665l-2.322-2.322c-0.886-0.886-0.886-2.322,0-3.208
		c0.886-0.887,2.323-0.887,3.209,0l2.322,2.321c0.886,0.886,0.886,2.323,0,3.209C164.983,160.869,164.402,161.09,163.821,161.09z"/>
	<path fill="#333333" d="M161.499,135.769c-0.581,0-1.162-0.221-1.604-0.664c-0.886-0.887-0.886-2.323,0-3.209l2.322-2.322
		c0.887-0.886,2.323-0.886,3.21,0c0.886,0.886,0.886,2.323-0.001,3.209l-2.322,2.322
		C162.661,135.548,162.08,135.769,161.499,135.769z"/>
</g>
<g>
	<path fill="#333333" d="M625.964,143.712h34.15c3.377,0,6.124-2.748,6.124-6.124c0-3.376-2.747-6.123-6.124-6.123
		c-1.253,0-2.269,1.016-2.269,2.27c0,1.253,1.016,2.27,2.269,2.27c0.873,0,1.585,0.709,1.585,1.584c0,0.874-0.712,1.586-1.585,1.586
		h-34.15c-1.254,0-2.27,1.015-2.27,2.27C623.694,142.695,624.71,143.712,625.964,143.712z"/>
	<path fill="#333333" d="M672.218,139.023c-1.254,0-2.27,1.016-2.27,2.268c0,1.254,1.016,2.27,2.27,2.27
		c0.874,0,1.585,0.711,1.585,1.585c0,0.874-0.711,1.585-1.585,1.585h-16.861h-17.289h-14.139c-1.254,0-2.27,1.016-2.27,2.268
		c0,1.255,1.016,2.27,2.27,2.27h14.139h17.289h16.861c3.376,0,6.123-2.746,6.123-6.123
		C678.341,141.769,675.594,139.023,672.218,139.023z"/>
	<path fill="#333333" d="M666.016,154.287h-1.363h-32.788h-1.362c-1.253,0-2.269,1.017-2.269,2.27c0,1.253,1.016,2.27,2.269,2.27
		h1.362h32.788h1.363c0.874,0,1.585,0.711,1.585,1.586c0,0.873-0.711,1.584-1.585,1.584c-1.253,0-2.268,1.017-2.268,2.27
		c0,1.253,1.016,2.269,2.268,2.269c3.376,0,6.123-2.747,6.123-6.122C672.139,157.035,669.392,154.287,666.016,154.287z"/>
</g>
<g>
	<path fill="#333333" d="M278.671,340.496c0.762-1.876,1.027-3.906,0.797-5.891c-0.018,0.02-0.037,0.037-0.055,0.057
		c-1.244,1.244-2.823,1.952-4.45,2.126c-2.156,0.231-4.394-0.477-6.043-2.126c-1.649-1.649-2.358-3.888-2.126-6.044
		c0.173-1.626,0.882-3.205,2.126-4.45c0.019-0.018,0.037-0.037,0.056-0.055c-1.984-0.23-4.014,0.036-5.891,0.799
		c-1.438,0.582-2.786,1.458-3.952,2.625c-2.115,2.114-3.272,4.824-3.472,7.591c-1.833-0.675-3.799-1.034-5.819-1.034
		c-3.907,0-7.717,1.366-10.727,3.849c-2.371,1.955-4.164,4.526-5.181,7.393c-1.287-0.147-2.608-0.069-3.882,0.233
		c-2.934,0.693-5.421,2.489-7.005,5.055c-1.584,2.566-2.073,5.595-1.378,8.528c0.588,2.486,2.021,4.722,4.031,6.292
		c1.979,1.546,4.445,2.396,6.944,2.396h30.367c1.009,0,2.021-0.12,3.007-0.352c6.996-1.656,11.34-8.695,9.684-15.691
		c-0.453-1.912-1.336-3.694-2.563-5.208c1.046-0.549,2.028-1.262,2.907-2.141C277.212,343.281,278.088,341.934,278.671,340.496z
		 M262.289,330.801c0.299,2.584,1.44,5.089,3.422,7.07c1.983,1.982,4.487,3.122,7.071,3.422c-1.058,1.037-2.352,1.692-3.707,1.967
		c-1.569-0.823-3.298-1.324-5.064-1.462c-0.996-1.537-2.221-2.883-3.616-4C259.791,335.376,260.422,332.706,262.289,330.801z
		 M264.972,363.072c-0.645,0.152-1.306,0.229-1.962,0.229h-30.366c-3.138,0-5.836-2.136-6.56-5.194
		c-0.415-1.755-0.123-3.566,0.824-5.1c0.947-1.533,2.435-2.608,4.189-3.023c0.513-0.121,1.039-0.183,1.561-0.183
		c0.732,0,1.456,0.12,2.152,0.356c0.616,0.207,1.292,0.142,1.857-0.182c0.564-0.324,0.962-0.873,1.094-1.511
		c1.172-5.698,6.253-9.835,12.082-9.835c2.43,0,4.752,0.712,6.717,1.988c1.704,1.106,3.141,2.637,4.144,4.494
		c0.408,0.755,1.207,1.213,2.065,1.188c0.085-0.002,0.17-0.004,0.255-0.004c1.868,0,3.613,0.602,5.029,1.643
		c1.58,1.16,2.752,2.87,3.233,4.9C272.365,357.403,269.533,361.992,264.972,363.072z"/>
</g>
<g>
	<path fill="#333333" d="M478.671,438.637c0.761-1.876,1.027-3.906,0.797-5.891c-0.019,0.02-0.036,0.037-0.055,0.057
		c-1.244,1.244-2.823,1.952-4.45,2.126c-2.155,0.231-4.395-0.477-6.043-2.126c-1.649-1.649-2.359-3.888-2.127-6.044
		c0.174-1.626,0.883-3.205,2.127-4.45c0.019-0.018,0.036-0.037,0.056-0.055c-1.984-0.229-4.015,0.036-5.891,0.799
		c-1.439,0.582-2.785,1.458-3.952,2.625c-2.114,2.114-3.271,4.824-3.471,7.591c-1.834-0.675-3.8-1.034-5.82-1.034
		c-3.907,0-7.717,1.366-10.727,3.849c-2.372,1.955-4.164,4.526-5.182,7.394c-1.286-0.147-2.607-0.069-3.882,0.233
		c-2.935,0.693-5.422,2.489-7.005,5.055c-1.584,2.566-2.073,5.595-1.379,8.528c0.589,2.486,2.02,4.722,4.032,6.292
		c1.978,1.546,4.444,2.396,6.943,2.396h5.695l1.88-4.539h-7.575c-3.139,0-5.835-2.136-6.56-5.194
		c-0.415-1.755-0.122-3.566,0.824-5.1c0.947-1.533,2.435-2.608,4.188-3.023c0.514-0.121,1.039-0.183,1.561-0.183
		c0.732,0,1.456,0.12,2.152,0.356c0.616,0.207,1.292,0.142,1.857-0.182c0.564-0.324,0.962-0.873,1.094-1.511
		c1.172-5.698,6.253-9.835,12.081-9.835c2.431,0,4.752,0.712,6.717,1.988c1.704,1.106,3.141,2.637,4.145,4.494
		c0.407,0.755,1.207,1.213,2.064,1.189c0.086-0.002,0.171-0.004,0.255-0.004c1.869,0,3.613,0.602,5.029,1.643
		c1.58,1.16,2.752,2.87,3.232,4.9c1.081,4.562-1.752,9.15-6.313,10.23c-0.645,0.152-1.305,0.23-1.962,0.23h-4.026l-1.88,4.539h5.907
		c1.009,0,2.021-0.12,3.006-0.353c6.996-1.656,11.34-8.695,9.685-15.691c-0.452-1.912-1.337-3.694-2.563-5.208
		c1.046-0.549,2.027-1.262,2.906-2.141C477.212,441.422,478.087,440.074,478.671,438.637z M464.01,439.939
		c-0.996-1.537-2.221-2.883-3.615-4c-0.604-2.422,0.026-5.092,1.894-6.997c0.3,2.584,1.44,5.089,3.422,7.07
		c1.982,1.982,4.487,3.122,7.07,3.422c-1.057,1.037-2.351,1.692-3.706,1.967C467.505,440.577,465.775,440.076,464.01,439.939z"/>
	<g>
		<path fill="#333333" d="M441.002,473.975c-0.289,0-0.583-0.055-0.867-0.173c-1.158-0.48-1.708-1.807-1.229-2.965l5.204-12.563
			c0.479-1.157,1.807-1.707,2.964-1.228c1.159,0.478,1.708,1.806,1.229,2.964l-5.203,12.563
			C442.737,473.448,441.893,473.975,441.002,473.975z"/>
	</g>
	<g>
		<path fill="#333333" d="M446.537,481.601c-0.289,0-0.583-0.056-0.867-0.173c-1.157-0.479-1.708-1.808-1.228-2.965l8.361-20.188
			c0.48-1.157,1.808-1.707,2.966-1.228c1.157,0.478,1.707,1.806,1.228,2.964l-8.362,20.188
			C448.272,481.072,447.428,481.601,446.537,481.601z"/>
	</g>
</g>
<g>
	<path fill="#333333" d="M248.303,460.03c0.479-1.158-0.07-2.485-1.229-2.964c-1.157-0.479-2.485,0.07-2.965,1.228l-2.315,5.59
		c-0.479,1.158,0.071,2.486,1.228,2.966c0.284,0.117,0.579,0.173,0.868,0.173c0.891,0,1.735-0.527,2.097-1.401L248.303,460.03z"/>
	<path fill="#333333" d="M242.443,468.246c-1.158-0.478-2.485,0.071-2.965,1.229l-0.572,1.381c-0.48,1.158,0.07,2.484,1.227,2.965
		c0.284,0.118,0.579,0.173,0.868,0.173c0.89,0,1.734-0.526,2.097-1.401l0.572-1.381C244.15,470.054,243.601,468.727,242.443,468.246
		z"/>
	<path fill="#333333" d="M278.671,438.656c0.761-1.876,1.026-3.906,0.797-5.891c-0.019,0.02-0.036,0.037-0.056,0.057
		c-1.244,1.244-2.823,1.952-4.449,2.126c-2.155,0.231-4.396-0.477-6.043-2.126c-1.649-1.649-2.359-3.888-2.128-6.044
		c0.174-1.626,0.884-3.205,2.128-4.45c0.018-0.018,0.035-0.037,0.056-0.055c-1.985-0.229-4.015,0.036-5.891,0.799
		c-1.439,0.582-2.786,1.458-3.951,2.625c-2.115,2.114-3.272,4.824-3.473,7.591c-1.835-0.675-3.8-1.034-5.819-1.034
		c-3.908,0-7.718,1.366-10.728,3.849c-2.371,1.955-4.164,4.526-5.182,7.394c-1.285-0.147-2.606-0.069-3.882,0.233
		c-2.935,0.693-5.421,2.489-7.005,5.055c-1.583,2.565-2.072,5.595-1.378,8.528c0.589,2.486,2.02,4.722,4.032,6.292
		c1.979,1.546,4.446,2.397,6.945,2.397h5.694l1.881-4.539h-7.575c-3.139,0-5.836-2.136-6.56-5.194
		c-0.415-1.755-0.123-3.566,0.824-5.1c0.947-1.533,2.434-2.608,4.188-3.023c0.515-0.121,1.039-0.183,1.561-0.183
		c0.732,0,1.457,0.12,2.152,0.356c0.616,0.207,1.293,0.142,1.857-0.182c0.564-0.324,0.963-0.873,1.095-1.511
		c1.172-5.698,6.252-9.835,12.081-9.835c2.43,0,4.752,0.714,6.717,1.989c1.705,1.105,3.14,2.636,4.143,4.493
		c0.408,0.755,1.208,1.213,2.065,1.189c0.086-0.002,0.17-0.004,0.256-0.004c1.868,0,3.612,0.602,5.029,1.644
		c1.58,1.16,2.752,2.87,3.232,4.9c1.08,4.561-1.752,9.15-6.313,10.23c-0.645,0.152-1.305,0.23-1.961,0.23h-4.027l-1.881,4.539h5.909
		c1.008,0,2.02-0.12,3.006-0.353c6.996-1.656,11.34-8.695,9.684-15.691c-0.452-1.912-1.335-3.694-2.563-5.208
		c1.046-0.549,2.027-1.262,2.906-2.141C277.211,441.441,278.086,440.094,278.671,438.656z M269.074,441.42
		c-1.569-0.823-3.3-1.324-5.065-1.462c-0.995-1.537-2.22-2.883-3.615-4c-0.604-2.422,0.027-5.092,1.893-6.997
		c0.299,2.584,1.44,5.089,3.424,7.07c1.981,1.982,4.485,3.122,7.069,3.422C271.722,440.49,270.43,441.146,269.074,441.42z"/>
	<path fill="#333333" d="M251.137,468.246c-1.158-0.479-2.484,0.071-2.964,1.229l-2.316,5.59c-0.479,1.158,0.07,2.485,1.229,2.964
		c0.283,0.119,0.578,0.174,0.867,0.174c0.891,0,1.735-0.527,2.097-1.401l2.316-5.59
		C252.845,470.054,252.295,468.727,251.137,468.246z"/>
	<path fill="#333333" d="M255.769,457.066c-1.158-0.479-2.485,0.07-2.965,1.228l-2.316,5.59c-0.479,1.158,0.071,2.486,1.229,2.966
		c0.284,0.117,0.579,0.173,0.867,0.173c0.891,0,1.735-0.527,2.098-1.401l2.315-5.591
		C257.476,458.872,256.927,457.545,255.769,457.066z"/>
</g>
<g>
	<path fill="#333333" d="M665.984,469.595h-37.934c-1.253,0-2.269,1.017-2.269,2.27c0,1.253,1.016,2.27,2.269,2.27h37.934
		c1.252,0,2.27-1.017,2.27-2.27C668.254,470.611,667.236,469.595,665.984,469.595z"/>
	<path fill="#333333" d="M658.956,464.307c0-1.253-1.016-2.27-2.27-2.27h-37.933c-1.253,0-2.27,1.017-2.27,2.27
		c0,1.253,1.017,2.27,2.27,2.27h37.933C657.94,466.576,658.956,465.56,658.956,464.307z"/>
	<path fill="#333333" d="M681.997,439.231c0.762-1.876,1.027-3.906,0.798-5.891c-0.018,0.02-0.036,0.037-0.056,0.057
		c-1.244,1.244-2.823,1.952-4.45,2.126c-2.155,0.232-4.395-0.477-6.043-2.126c-1.648-1.65-2.358-3.888-2.127-6.044
		c0.175-1.626,0.884-3.205,2.127-4.45c0.018-0.018,0.036-0.037,0.057-0.055c-1.985-0.229-4.015,0.036-5.892,0.799
		c-1.438,0.582-2.785,1.458-3.951,2.625c-2.114,2.114-3.272,4.824-3.472,7.591c-1.834-0.675-3.799-1.034-5.819-1.034
		c-3.908,0-7.718,1.366-10.727,3.849c-2.372,1.955-4.164,4.526-5.182,7.394c-1.286-0.147-2.607-0.069-3.882,0.233
		c-2.935,0.693-5.422,2.489-7.006,5.055c-0.534,0.867-0.944,1.786-1.227,2.739h4.887c0.064-0.121,0.13-0.239,0.203-0.355
		c0.946-1.533,2.433-2.608,4.188-3.023c0.515-0.121,1.039-0.183,1.561-0.183c0.73,0,1.455,0.12,2.151,0.356
		c0.616,0.207,1.293,0.142,1.857-0.182c0.565-0.324,0.963-0.873,1.095-1.511c1.173-5.698,6.254-9.835,12.082-9.835
		c2.431,0,4.752,0.714,6.717,1.989c1.704,1.105,3.14,2.636,4.144,4.493c0.408,0.755,1.208,1.213,2.065,1.189
		c0.086-0.002,0.17-0.004,0.256-0.004c1.868,0,3.612,0.602,5.029,1.644c1.58,1.16,2.752,2.87,3.232,4.9
		c1.08,4.562-1.753,9.15-6.313,10.23c-0.645,0.152-1.305,0.23-1.961,0.23h-5.59c0.376,0.671,0.592,1.444,0.592,2.27
		c0,0.824-0.216,1.598-0.591,2.27h5.59c1.008,0,2.019-0.12,3.006-0.353c6.996-1.656,11.34-8.695,9.683-15.691
		c-0.453-1.912-1.336-3.694-2.563-5.208c1.046-0.549,2.027-1.262,2.906-2.141C680.538,442.017,681.413,440.669,681.997,439.231z
		 M672.4,441.995c-1.568-0.823-3.298-1.324-5.065-1.462c-0.996-1.537-2.221-2.883-3.615-4c-0.604-2.422,0.027-5.092,1.894-6.997
		c0.3,2.584,1.44,5.089,3.423,7.07c1.983,1.982,4.486,3.122,7.07,3.422C675.049,441.065,673.757,441.721,672.4,441.995z"/>
	<path fill="#333333" d="M623.513,459.019h37.933c1.254,0,2.269-1.017,2.269-2.27c0-1.253-1.016-2.268-2.269-2.268h-37.933
		c-1.253,0-2.269,1.016-2.269,2.268C621.244,458.002,622.26,459.019,623.513,459.019z"/>
</g>
<g>
	<path fill="#333333" d="M659.236,364.695c-0.314-0.542-1.008-0.728-1.551-0.414l-1.463,0.846v-1.672
		c0-0.627-0.508-1.135-1.135-1.135c-0.627,0-1.135,0.508-1.135,1.135v1.672l-1.447-0.837c-0.543-0.313-1.236-0.128-1.55,0.415
		c-0.313,0.542-0.128,1.236,0.415,1.551l1.447,0.836l-1.447,0.836c-0.543,0.312-0.729,1.006-0.415,1.55
		c0.21,0.363,0.591,0.566,0.983,0.566c0.192,0,0.388-0.049,0.566-0.151l1.447-0.836v1.689c0,0.627,0.508,1.134,1.135,1.134
		c0.627,0,1.135-0.507,1.135-1.134v-1.689l1.463,0.846c0.18,0.103,0.374,0.15,0.567,0.15c0.392,0,0.773-0.203,0.984-0.566
		c0.313-0.542,0.127-1.237-0.416-1.549l-1.463-0.846l1.463-0.846C659.363,365.933,659.549,365.238,659.236,364.695z"/>
	<path fill="#333333" d="M651.411,360.61c0.393,0,0.773-0.203,0.984-0.567c0.313-0.542,0.127-1.236-0.416-1.55l-1.464-0.845
		l1.464-0.845c0.543-0.314,0.729-1.007,0.416-1.55c-0.314-0.543-1.008-0.73-1.551-0.416l-1.463,0.846v-1.672
		c0-0.627-0.509-1.135-1.135-1.135c-0.627,0-1.135,0.508-1.135,1.135v1.672l-1.447-0.837c-0.543-0.313-1.236-0.127-1.551,0.416
		c-0.313,0.543-0.127,1.236,0.416,1.551l1.447,0.835l-1.447,0.836c-0.543,0.314-0.729,1.007-0.416,1.55
		c0.211,0.364,0.592,0.567,0.984,0.567c0.192,0,0.387-0.05,0.566-0.152l1.447-0.836v1.69c0,0.626,0.508,1.135,1.135,1.135
		c0.626,0,1.135-0.509,1.135-1.135v-1.69l1.463,0.845C651.024,360.561,651.219,360.61,651.411,360.61z"/>
	<path fill="#333333" d="M645.586,364.695c-0.313-0.542-1.007-0.728-1.55-0.414l-1.464,0.846v-1.672
		c0-0.627-0.508-1.135-1.135-1.135c-0.626,0-1.134,0.508-1.134,1.135v1.672l-1.448-0.837c-0.542-0.313-1.236-0.128-1.55,0.415
		c-0.313,0.542-0.127,1.236,0.416,1.551l1.447,0.836l-1.447,0.836c-0.543,0.312-0.729,1.006-0.416,1.55
		c0.211,0.363,0.592,0.566,0.984,0.566c0.192,0,0.388-0.049,0.565-0.151l1.448-0.836v1.689c0,0.627,0.508,1.134,1.134,1.134
		c0.627,0,1.135-0.507,1.135-1.134v-1.689l1.464,0.846c0.179,0.103,0.374,0.15,0.566,0.15c0.392,0,0.773-0.203,0.983-0.566
		c0.314-0.542,0.128-1.237-0.415-1.549l-1.464-0.846l1.464-0.846C645.714,365.933,645.899,365.238,645.586,364.695z"/>
	<path fill="#333333" d="M678.218,332.582c0.761-1.876,1.026-3.906,0.797-5.891c-0.018,0.02-0.037,0.037-0.055,0.057
		c-1.244,1.244-2.824,1.952-4.45,2.126c-2.156,0.232-4.395-0.477-6.044-2.126c-1.648-1.649-2.357-3.888-2.126-6.044
		c0.174-1.626,0.882-3.205,2.126-4.45c0.019-0.018,0.037-0.037,0.057-0.055c-1.984-0.229-4.014,0.036-5.891,0.799
		c-1.438,0.582-2.785,1.458-3.952,2.625c-2.114,2.114-3.271,4.824-3.471,7.591c-1.834-0.675-3.8-1.034-5.82-1.034
		c-3.907,0-7.717,1.366-10.728,3.849c-2.371,1.955-4.163,4.526-5.181,7.394c-1.287-0.147-2.607-0.069-3.883,0.233
		c-2.934,0.693-5.421,2.489-7.004,5.055c-1.585,2.565-2.074,5.595-1.379,8.528c0.589,2.486,2.021,4.722,4.031,6.292
		c1.979,1.546,4.444,2.396,6.944,2.396h3.647c1.253,0,2.269-1.017,2.269-2.27c0-1.253-1.016-2.27-2.269-2.27h-3.647
		c-3.138,0-5.836-2.136-6.56-5.194c-0.416-1.755-0.122-3.566,0.824-5.1c0.946-1.533,2.434-2.608,4.188-3.023
		c0.514-0.121,1.039-0.183,1.56-0.183c0.732,0,1.457,0.12,2.153,0.356c0.616,0.207,1.292,0.142,1.857-0.182
		c0.564-0.324,0.963-0.873,1.094-1.511c1.173-5.698,6.254-9.835,12.082-9.835c2.43,0,4.753,0.714,6.718,1.989
		c1.704,1.105,3.139,2.636,4.143,4.493c0.408,0.755,1.208,1.213,2.065,1.189c0.085-0.002,0.17-0.004,0.255-0.004
		c1.868,0,3.612,0.602,5.03,1.644c1.579,1.16,2.751,2.87,3.232,4.9c1.079,4.562-1.753,9.15-6.313,10.23
		c-0.645,0.152-1.305,0.229-1.963,0.229h-1.883c-0.627,0-1.194,0.255-1.605,0.665c-0.41,0.411-0.664,0.978-0.664,1.604
		c0,1.253,1.016,2.27,2.269,2.27h1.885c1.008,0,2.02-0.12,3.006-0.353c6.996-1.656,11.341-8.695,9.685-15.691
		c-0.453-1.912-1.337-3.694-2.563-5.208c1.046-0.549,2.027-1.262,2.906-2.141C676.758,335.367,677.634,334.02,678.218,332.582z
		 M668.621,335.346c-1.569-0.823-3.299-1.324-5.065-1.462c-0.996-1.537-2.221-2.883-3.616-4c-0.604-2.422,0.027-5.092,1.895-6.997
		c0.299,2.584,1.44,5.089,3.423,7.07c1.981,1.983,4.486,3.122,7.069,3.422C671.269,334.416,669.977,335.071,668.621,335.346z"/>
</g>
</svg>
