<?xml version="1.0" encoding="utf-8"?>
<!-- Generator: Adobe Illustrator 17.0.0, SVG Export Plug-In . SVG Version: 6.00 Build 0)  -->
<!DOCTYPE svg PUBLIC "-//W3C//DTD SVG 1.1//EN" "http://www.w3.org/Graphics/SVG/1.1/DTD/svg11.dtd">
<svg version="1.1" id="Слой_1" xmlns="http://www.w3.org/2000/svg" xmlns:xlink="http://www.w3.org/1999/xlink" x="0px" y="0px"
	 width="19.84px" height="17.01px" viewBox="0 0 19.84 17.01" enable-background="new 0 0 19.84 17.01" xml:space="preserve">
<g>
	<path fill="#EDEDED" d="M7.191,14.239c-0.103,0-0.208-0.019-0.309-0.059c-0.413-0.161-0.609-0.608-0.438-0.996l1.854-4.223
		C8.47,8.572,8.943,8.387,9.355,8.548c0.413,0.161,0.609,0.608,0.438,0.997l-1.855,4.224C7.81,14.062,7.509,14.239,7.191,14.239z"/>
	<path fill="#EDEDED" d="M19.557,6.158c-0.243-0.966-0.832-1.834-1.66-2.444c-0.722-0.532-1.601-0.852-2.507-0.918
		c-1.104-1.609-2.997-2.59-5.049-2.59c-1.392,0-2.75,0.459-3.823,1.294C5.674,2.158,5.035,3.022,4.672,3.987
		c-0.458-0.05-0.929-0.024-1.383,0.078c-1.045,0.234-1.932,0.837-2.496,1.7s-0.739,1.88-0.492,2.867
		c0.21,0.836,0.72,1.587,1.437,2.115c0.705,0.52,1.584,0.806,2.475,0.806h0.025h2.004l0.67-1.526H4.238c-0.002,0-0.004,0-0.007,0
		H4.212c-1.118,0-2.08-0.718-2.338-1.747C1.727,7.69,1.831,7.082,2.168,6.566C2.506,6.05,3.036,5.689,3.661,5.55
		c0.183-0.041,0.37-0.062,0.556-0.062c0.261,0,0.519,0.04,0.767,0.119c0.22,0.07,0.461,0.048,0.662-0.061
		c0.201-0.109,0.343-0.294,0.39-0.508c0.418-1.916,2.228-3.306,4.306-3.306c1.617,0,3.1,0.835,3.87,2.179
		c0.145,0.254,0.43,0.409,0.736,0.4c0.03-0.001,0.061-0.001,0.091-0.001c1.408,0,2.619,0.905,2.944,2.2
		c0.385,1.533-0.624,3.076-2.25,3.439c-0.23,0.051-0.465,0.077-0.699,0.077h-1.435l-0.67,1.526h2.105c0.359,0,0.72-0.04,1.071-0.119
		C18.599,10.877,20.147,8.51,19.557,6.158z"/>
	<path fill="#EDEDED" d="M9.164,16.803c-0.103,0-0.208-0.019-0.309-0.058c-0.413-0.161-0.609-0.608-0.438-0.997l2.98-6.787
		c0.171-0.389,0.644-0.574,1.056-0.413c0.413,0.161,0.608,0.608,0.438,0.997l-2.98,6.787C9.782,16.626,9.481,16.803,9.164,16.803z"
		/>
</g>
</svg>
