<?xml version="1.0" encoding="utf-8"?>
<!-- Generator: Adobe Illustrator 17.0.0, SVG Export Plug-In . SVG Version: 6.00 Build 0)  -->
<!DOCTYPE svg PUBLIC "-//W3C//DTD SVG 1.1//EN" "http://www.w3.org/Graphics/SVG/1.1/DTD/svg11.dtd">
<svg version="1.1" id="Слой_1" xmlns="http://www.w3.org/2000/svg" xmlns:xlink="http://www.w3.org/1999/xlink" x="0px" y="0px"
	 width="28.35px" height="28.35px" viewBox="0 0 28.35 28.35" enable-background="new 0 0 28.35 28.35" xml:space="preserve">
<g id="_x33_43._Playlist_1_">
	<g>
		<path fill="#3F3F3F" d="M25.881,0.47H2.452C1.374,0.47,0.5,1.288,0.5,2.297v1.827c0,1.009,0.874,1.827,1.952,1.827h23.429
			c1.077,0,1.952-0.818,1.952-1.827V2.297C27.833,1.288,26.96,0.47,25.881,0.47z M25.881,11.433H2.452
			c-1.078,0-1.952,0.819-1.952,1.828v1.827c0,1.009,0.874,1.828,1.952,1.828h23.429c1.077,0,1.952-0.819,1.952-1.828v-1.827
			C27.833,12.252,26.96,11.433,25.881,11.433z M25.881,22.398H2.452c-1.078,0-1.952,0.819-1.952,1.827v1.828
			c0,1.008,0.874,1.827,1.952,1.827h23.429c1.077,0,1.952-0.82,1.952-1.827v-1.828C27.833,23.216,26.96,22.398,25.881,22.398z"/>
	</g>
</g>
</svg>
