<?xml version="1.0" encoding="utf-8"?>
<!-- Generator: Adobe Illustrator 17.0.0, SVG Export Plug-In . SVG Version: 6.00 Build 0)  -->
<!DOCTYPE svg PUBLIC "-//W3C//DTD SVG 1.1//EN" "http://www.w3.org/Graphics/SVG/1.1/DTD/svg11.dtd">
<svg version="1.1" id="Слой_1" xmlns="http://www.w3.org/2000/svg" xmlns:xlink="http://www.w3.org/1999/xlink" x="0px" y="0px"
	 width="19.84px" height="17.01px" viewBox="0 0 19.84 17.01" enable-background="new 0 0 19.84 17.01" xml:space="preserve">
<g>
	<path fill="#343434" d="M19.644,6.127c-0.244-0.969-0.837-1.84-1.669-2.452c-0.726-0.533-1.61-0.855-2.522-0.921
		c-1.11-1.614-3.015-2.599-5.078-2.599c-1.4,0-2.766,0.461-3.845,1.298c-0.85,0.66-1.493,1.527-1.857,2.495
		c-0.461-0.05-0.934-0.023-1.391,0.079C2.23,4.26,1.338,4.866,0.771,5.731S0.028,7.619,0.276,8.609
		c0.211,0.839,0.724,1.593,1.445,2.123c0.709,0.521,1.593,0.808,2.489,0.808h0.025h0.329l0.674-1.531H4.236
		c-0.002,0-0.004,0-0.006,0H4.21c-1.125,0-2.092-0.721-2.351-1.753C1.71,7.664,1.816,7.053,2.154,6.535
		c0.339-0.518,0.873-0.88,1.502-1.02c0.184-0.041,0.372-0.062,0.56-0.062c0.262,0,0.522,0.04,0.771,0.12
		c0.22,0.071,0.463,0.049,0.666-0.061c0.202-0.109,0.345-0.295,0.392-0.51c0.42-1.923,2.241-3.318,4.33-3.318
		c1.627,0,3.118,0.838,3.893,2.187c0.146,0.255,0.433,0.41,0.74,0.401c0.03-0.001,0.061-0.001,0.091-0.001
		c1.417,0,2.635,0.908,2.961,2.208c0.358,1.421-0.481,2.851-1.9,3.348l-0.751,1.702c0.257-0.017,0.512-0.052,0.763-0.108
		C18.681,10.863,20.238,8.488,19.644,6.127z"/>
	<path fill="#343434" d="M5.519,14.238c-0.104,0-0.209-0.019-0.311-0.059c-0.415-0.162-0.612-0.61-0.44-1L6.633,8.94
		C6.805,8.55,7.281,8.364,7.696,8.526c0.415,0.162,0.612,0.61,0.44,1l-1.865,4.239C6.142,14.059,5.838,14.238,5.519,14.238z"/>
	<path fill="#343434" d="M7.504,16.81c-0.104,0-0.209-0.019-0.311-0.058c-0.415-0.162-0.612-0.61-0.441-1L9.75,8.94
		c0.172-0.391,0.648-0.576,1.063-0.414c0.415,0.162,0.612,0.61,0.44,1l-2.997,6.812C8.126,16.632,7.823,16.81,7.504,16.81z"/>
	<g>
		<polygon fill="#343434" points="13.371,11.343 14.52,11.343 12.065,16.924 12.652,12.902 11.559,12.902 12.42,8.445 14.656,8.445 
					"/>
	</g>
</g>
</svg>
