<?xml version="1.0" encoding="utf-8"?>
<!-- Generator: Adobe Illustrator 17.0.0, SVG Export Plug-In . SVG Version: 6.00 Build 0)  -->
<!DOCTYPE svg PUBLIC "-//W3C//DTD SVG 1.1//EN" "http://www.w3.org/Graphics/SVG/1.1/DTD/svg11.dtd">
<svg version="1.1" id="Слой_1" xmlns="http://www.w3.org/2000/svg" xmlns:xlink="http://www.w3.org/1999/xlink" x="0px" y="0px"
	 width="19.84px" height="17.01px" viewBox="0 0 19.84 17.01" enable-background="new 0 0 19.84 17.01" xml:space="preserve">
<g>
	<path fill="#EDEDED" d="M19.435,6.151c-0.239-0.969-0.821-1.84-1.638-2.451c-0.712-0.533-1.58-0.854-2.474-0.921
		c-1.089-1.614-2.958-2.598-4.982-2.598c-1.374,0-2.714,0.461-3.773,1.298c-0.835,0.66-1.464,1.527-1.822,2.494
		C4.293,3.923,3.828,3.95,3.38,4.051c-1.032,0.234-1.907,0.84-2.464,1.705C0.359,6.622,0.187,7.643,0.431,8.632
		c0.207,0.839,0.71,1.592,1.418,2.122c0.696,0.521,1.563,0.808,2.442,0.808h0.025h0.323l0.661-1.53H4.317c-0.002,0-0.004,0-0.006,0
		H4.292c-1.104,0-2.052-0.72-2.307-1.752C1.839,7.688,1.941,7.077,2.274,6.56S3.13,5.681,3.747,5.541
		C3.928,5.5,4.113,5.479,4.296,5.479c0.257,0,0.512,0.04,0.757,0.12c0.217,0.07,0.454,0.049,0.653-0.061
		c0.198-0.109,0.338-0.295,0.385-0.51C6.503,3.106,8.29,1.712,10.34,1.712c1.596,0,3.06,0.838,3.82,2.186
		c0.143,0.255,0.424,0.41,0.726,0.401c0.03-0.001,0.06-0.001,0.09-0.001c1.39,0,2.585,0.907,2.906,2.207
		c0.38,1.538-0.616,3.085-2.22,3.449c-0.227,0.051-0.459,0.078-0.69,0.078h-0.014l-0.661,1.53h0.676c0.355,0,0.71-0.04,1.057-0.119
		C18.489,10.884,20.017,8.51,19.435,6.151z"/>
	<path fill="#EDEDED" d="M5.576,14.257c-0.102,0-0.205-0.019-0.305-0.059c-0.407-0.162-0.601-0.609-0.432-1l1.83-4.236
		c0.169-0.391,0.636-0.576,1.043-0.414c0.407,0.162,0.601,0.61,0.432,1l-1.83,4.236C6.186,14.079,5.889,14.257,5.576,14.257z"/>
	<path fill="#EDEDED" d="M7.523,16.829c-0.102,0-0.205-0.019-0.305-0.058c-0.407-0.162-0.601-0.609-0.432-1l2.941-6.808
		c0.168-0.391,0.636-0.576,1.043-0.414c0.407,0.162,0.6,0.61,0.432,1L8.26,16.356C8.133,16.651,7.836,16.829,7.523,16.829z"/>
	<path fill="#EDEDED" d="M12.144,13.21c-0.102,0-0.205-0.019-0.305-0.059c-0.407-0.162-0.6-0.609-0.432-1l1.378-3.189
		c0.168-0.391,0.636-0.576,1.043-0.414c0.407,0.162,0.601,0.61,0.432,1l-1.378,3.189C12.754,13.032,12.457,13.21,12.144,13.21z"/>
</g>
</svg>
