<?xml version="1.0" encoding="utf-8"?>
<!-- Generator: Adobe Illustrator 17.0.0, SVG Export Plug-In . SVG Version: 6.00 Build 0)  -->
<!DOCTYPE svg PUBLIC "-//W3C//DTD SVG 1.1//EN" "http://www.w3.org/Graphics/SVG/1.1/DTD/svg11.dtd">
<svg version="1.1" id="Слой_1" xmlns="http://www.w3.org/2000/svg" xmlns:xlink="http://www.w3.org/1999/xlink" x="0px" y="0px"
	 width="28.35px" height="28.35px" viewBox="0 0 28.35 28.35" enable-background="new 0 0 28.35 28.35" xml:space="preserve">
<path fill="#DADADA" d="M26.965,27.252c-1,0.999-2.619,0.999-3.618,0l-4.516-4.516c-1.858,1.189-4.053,1.9-6.422,1.9
	c-6.595,0-11.94-5.346-11.94-11.94s5.346-11.94,11.94-11.94c6.594,0,11.94,5.346,11.94,11.94c0,2.369-0.712,4.565-1.9,6.422
	l4.516,4.516C27.965,24.632,27.965,26.251,26.965,27.252z M12.41,4.167c-4.71,0-8.529,3.819-8.529,8.529
	c0,4.711,3.819,8.529,8.529,8.529c4.711,0,8.529-3.817,8.529-8.529C20.938,7.986,17.121,4.167,12.41,4.167z"/>
</svg>
