<?xml version="1.0" encoding="utf-8"?>
<!-- Generator: Adobe Illustrator 17.0.0, SVG Export Plug-In . SVG Version: 6.00 Build 0)  -->
<!DOCTYPE svg PUBLIC "-//W3C//DTD SVG 1.1//EN" "http://www.w3.org/Graphics/SVG/1.1/DTD/svg11.dtd">
<svg version="1.1" id="Слой_1" xmlns="http://www.w3.org/2000/svg" xmlns:xlink="http://www.w3.org/1999/xlink" x="0px" y="0px"
	 width="28.35px" height="28.35px" viewBox="0 0 28.35 28.35" enable-background="new 0 0 28.35 28.35" xml:space="preserve">
<g>
	<g>
		<path fill="#EDEDED" d="M14.085,7.086c-0.687,0-1.243-0.542-1.243-1.211V2.369c0-0.669,0.556-1.211,1.243-1.211
			s1.244,0.543,1.244,1.211v3.506C15.329,6.544,14.772,7.086,14.085,7.086z"/>
		<path fill="#EDEDED" d="M5.175,15.768H1.576c-0.687,0-1.243-0.543-1.243-1.211c0-0.669,0.556-1.211,1.243-1.211h3.599
			c0.687,0,1.243,0.543,1.243,1.211C6.418,15.225,5.861,15.768,5.175,15.768z"/>
		<path fill="#EDEDED" d="M14.085,27.955c-0.687,0-1.243-0.543-1.243-1.211v-3.506c0-0.669,0.556-1.211,1.243-1.211
			s1.244,0.542,1.244,1.211v3.506C15.329,27.412,14.772,27.955,14.085,27.955z"/>
		<path fill="#EDEDED" d="M26.595,15.768h-3.599c-0.687,0-1.244-0.543-1.244-1.211c0-0.669,0.557-1.211,1.244-1.211h3.599
			c0.687,0,1.244,0.543,1.244,1.211C27.838,15.225,27.282,15.768,26.595,15.768z"/>
		<path fill="#EDEDED" d="M14.085,20.967c-3.628,0-6.58-2.875-6.58-6.41c0-3.534,2.952-6.41,6.58-6.41s6.58,2.876,6.58,6.41
			S17.714,20.967,14.085,20.967z M14.085,10.568c-2.257,0-4.093,1.789-4.093,3.988s1.836,3.988,4.093,3.988s4.094-1.789,4.094-3.988
			S16.342,10.568,14.085,10.568z"/>
	</g>
	<path fill="#EDEDED" d="M7.785,9.629c-0.318,0-0.636-0.118-0.879-0.354l-1.272-1.24c-0.486-0.473-0.486-1.24,0-1.713
		c0.486-0.473,1.273-0.473,1.758,0l1.272,1.24c0.486,0.473,0.486,1.24,0,1.713C8.421,9.511,8.103,9.629,7.785,9.629z"/>
	<path fill="#EDEDED" d="M6.512,23.146c-0.318,0-0.636-0.118-0.879-0.355c-0.486-0.473-0.486-1.24,0-1.713l1.272-1.239
		c0.485-0.473,1.273-0.473,1.758,0c0.486,0.473,0.486,1.24,0,1.713l-1.272,1.239C7.149,23.027,6.83,23.146,6.512,23.146z"/>
	<path fill="#EDEDED" d="M21.659,23.146c-0.318,0-0.636-0.118-0.879-0.355l-1.272-1.24c-0.486-0.473-0.486-1.24,0-1.712
		c0.486-0.473,1.273-0.473,1.758,0l1.272,1.239c0.486,0.473,0.486,1.24,0,1.713C22.295,23.027,21.977,23.146,21.659,23.146z"/>
	<path fill="#EDEDED" d="M20.386,9.629c-0.318,0-0.636-0.118-0.879-0.354c-0.486-0.473-0.486-1.24,0-1.713l1.272-1.24
		c0.486-0.473,1.273-0.473,1.759,0c0.485,0.473,0.485,1.24,0,1.713l-1.272,1.24C21.023,9.511,20.705,9.629,20.386,9.629z"/>
</g>
</svg>
