<?xml version="1.0" encoding="utf-8"?>
<!-- Generator: Adobe Illustrator 17.0.0, SVG Export Plug-In . SVG Version: 6.00 Build 0)  -->
<!DOCTYPE svg PUBLIC "-//W3C//DTD SVG 1.1//EN" "http://www.w3.org/Graphics/SVG/1.1/DTD/svg11.dtd">
<svg version="1.1" id="Слой_1" xmlns="http://www.w3.org/2000/svg" xmlns:xlink="http://www.w3.org/1999/xlink" x="0px" y="0px"
	 width="28.35px" height="28.35px" viewBox="0 0 28.35 28.35" enable-background="new 0 0 28.35 28.35" xml:space="preserve">
<g>
	<path fill="#C6C6C6" d="M22.252,22.411H5.28c-0.56,0-1.015-0.455-1.015-1.015c0-0.561,0.454-1.015,1.015-1.015h16.973
		c0.56,0,1.015,0.454,1.015,1.015C23.268,21.956,22.812,22.411,22.252,22.411z"/>
	<path fill="#C6C6C6" d="M18.092,19.029H1.12c-0.56,0-1.015-0.454-1.015-1.015c0-0.561,0.455-1.015,1.015-1.015h16.973
		c0.561,0,1.015,0.454,1.015,1.015C19.108,18.575,18.654,19.029,18.092,19.029z"/>
	<path fill="#C6C6C6" d="M20.221,15.648H3.25c-0.561,0-1.015-0.454-1.015-1.015c0-0.561,0.454-1.015,1.015-1.015h16.972
		c0.561,0,1.015,0.454,1.015,1.015C21.237,15.194,20.782,15.648,20.221,15.648z"/>
	<path fill="#C6C6C6" d="M28.088,11.851c-0.304-1.285-1.043-2.44-2.083-3.252c-0.906-0.707-2.009-1.133-3.148-1.221
		c-1.386-2.141-3.763-3.447-6.339-3.447c-1.748,0-3.453,0.611-4.799,1.722C10.657,6.527,9.855,7.677,9.4,8.96
		C8.825,8.895,8.233,8.929,7.664,9.065c-1.313,0.31-2.426,1.114-3.135,2.262c-0.239,0.388-0.423,0.8-0.549,1.226h2.186
		c0.028-0.054,0.058-0.107,0.091-0.159c0.423-0.686,1.089-1.167,1.874-1.352c0.23-0.055,0.465-0.082,0.698-0.082
		c0.327,0,0.651,0.054,0.963,0.159c0.275,0.093,0.578,0.063,0.83-0.081c0.253-0.145,0.432-0.391,0.49-0.676
		c0.524-2.55,2.798-4.4,5.405-4.4c2.031,0,3.893,1.111,4.86,2.9c0.183,0.338,0.541,0.544,0.924,0.532
		c0.038-0.001,0.076-0.002,0.115-0.002c1.769,0,3.288,1.204,3.697,2.928c0.483,2.041-0.784,4.094-2.824,4.577
		c-0.288,0.068-0.584,0.103-0.877,0.103h-2.501c0.168,0.301,0.265,0.647,0.265,1.015c0,0.369-0.097,0.715-0.265,1.015h2.501
		c0.452,0,0.904-0.053,1.345-0.158C26.885,18.131,28.829,14.981,28.088,11.851z"/>
</g>
</svg>
